<svg data-name="그룹 1393" xmlns="http://www.w3.org/2000/svg" width="110" height="110" viewBox="0 0 110 110">
    <defs>
        <clipPath id="ycs036185a">
            <path data-name="사각형 805" style="fill:#ffba00" d="M0 0h110v110H0z"/>
        </clipPath>
    </defs>
    <g data-name="그룹 1125" style="clip-path:url(#ycs036185a)">
        <path data-name="패스 843" d="M235.835 251.125a4.824 4.824 0 1 0-4.824-4.823 4.823 4.823 0 0 0 4.824 4.823" transform="translate(-186.205 -194.066)" style="fill:#ffba00"/>
        <path data-name="패스 844" d="M95.646 17.948A55 55 0 1 0 14.608 92.33a55.39 55.39 0 0 0 7.541 6.787 54.715 54.715 0 0 0 30.31 10.824c.868.04 1.746.06 2.609.06A54.869 54.869 0 0 0 93.712 94.07a54.886 54.886 0 0 0 16.228-36.529 54.639 54.639 0 0 0-14.294-39.593M83.952 61.8a4.341 4.341 0 0 0-3 4.137c0 3.419-2.33 5.011-4.359 6.016a19.259 19.259 0 0 1-5.493 1.658c-1.771.008-3.462.1-5.058.264a23.649 23.649 0 0 0 4.33-3.475 23.493 23.493 0 0 0-16.466-39.957h-.249A23.483 23.483 0 0 0 32.3 44.165l-5.1-2.041a4.35 4.35 0 0 0-3.235 8.076l9.475 3.789a4.351 4.351 0 0 0 5.93-3.474 5.2 5.2 0 0 1 .453-1.8l.052-.136a14.854 14.854 0 0 1 13.783-9.434h.158a14.858 14.858 0 0 1 14.615 14.561 14.774 14.774 0 0 1-14.775 14.986 4.355 4.355 0 0 0-4.349 4.351v11.229a4.35 4.35 0 0 0 8.3 1.815c.254-.374 2.87-3.777 13.752-3.777.141 0 .283-.007.424-.02a27.35 27.35 0 0 0 8.426-2.423 18.34 18.34 0 0 0 5.635-4.074 46.366 46.366 0 0 1 2.674 7.448c.142.542.272 1.085.388 1.62a45.36 45.36 0 0 1-2.106 2.234 45.2 45.2 0 0 1-58.78 4.153 45.225 45.225 0 0 1-1.691-1.329c.173-.69.382-1.4.622-2.119a32.244 32.244 0 0 1 4.149-8.17l.345-.5c2.783-3.991 7.441-10.672 7.441-17.336a4.351 4.351 0 0 0-5.523-4.189L23.2 60.452a4.35 4.35 0 1 0 2.34 8.378l2.619-.732a61.04 61.04 0 0 1-3.84 6.038l-.368.527a41.545 41.545 0 0 0-4.472 8.262A45.184 45.184 0 0 1 54.95 9.817c.708 0 1.427.017 2.138.049a45.181 45.181 0 0 1 43.046 47.22v.01A45.442 45.442 0 0 1 95.2 75.637a56.644 56.644 0 0 0-6.39-12.256 4.342 4.342 0 0 0-4.858-1.581" transform="translate(-.551 -.001)" style="fill:#ffba00"/>
    </g>
</svg>
