<svg xmlns="http://www.w3.org/2000/svg" width="200" height="200" viewBox="0 0 200 200">
    <defs>
        <clipPath id="v0iyh405ea">
            <path data-name="사각형 1617" transform="translate(859 412)" style="fill:#5b5b5b" d="M0 0h200v200H0z"/>
        </clipPath>
        <clipPath id="unifo4t0vb">
            <path data-name="사각형 1616" style="fill:#5b5b5b" d="M0 0h190.476v199.532H0z"/>
        </clipPath>
    </defs>
    <g data-name="마스크 그룹 1654" transform="translate(-859 -412)" style="clip-path:url(#v0iyh405ea)">
        <g data-name="그룹 5097">
            <g data-name="그룹 5096" style="clip-path:url(#unifo4t0vb)" transform="translate(863.762 412)">
                <path data-name="패스 2673" d="M92.678 85.68a7.925 7.925 0 1 0-5.306-9.872 7.925 7.925 0 0 0 5.306 9.872" transform="translate(7.249 5.844)" style="fill:#5b5b5b"/>
                <path data-name="패스 2674" d="M95.562 90.991a1.624 1.624 0 0 0 1.6 1.371 1.579 1.579 0 0 0 .257-.021 13.732 13.732 0 0 0 8.43-4.8 1.625 1.625 0 0 0-2.5-2.076 10.482 10.482 0 0 1-6.437 3.664 1.624 1.624 0 0 0-1.351 1.859" transform="translate(7.958 7.07)" style="fill:#5b5b5b"/>
                <path data-name="패스 2675" d="M104.379 92.129a7.208 7.208 0 0 1-2.544 1.474 1.625 1.625 0 1 0 1.221 3.013 10.213 10.213 0 0 0 3.331-1.933 1.625 1.625 0 1 0-2.008-2.554" transform="translate(8.397 7.645)" style="fill:#5b5b5b"/>
                <path data-name="패스 2676" d="M175.039 172.8a114.9 114.9 0 0 0-5.3-39.822 3.257 3.257 0 0 0-6.186.141 17.514 17.514 0 0 1-6.128 9.172l-13.825-23.95a42.925 42.925 0 0 0 8.363-15.87 43.9 43.9 0 0 0-28.956-53.634c-.022-.011-.054-.011-.076-.022.054-.054.108-.1.162-.152l8.482-7.713a3.252 3.252 0 0 0-2.979-5.557l-11.125 2.817a10.242 10.242 0 0 1-12.261-13.044l3.477-10.93a3.25 3.25 0 0 0-5.362-3.315l-8.211 7.995a10.238 10.238 0 0 1-17.149-5.156l-2.448-11.2A3.247 3.247 0 0 0 72.441 0a3.286 3.286 0 0 0-3.228 2.362L66.093 13.4a10.241 10.241 0 0 1-17.43 4.106L40.95 9.025a3.254 3.254 0 0 0-5.557 2.99L38.21 23.13a10.242 10.242 0 0 1-13.044 12.262l-10.92-3.477a3.25 3.25 0 0 0-3.315 5.362l7.984 8.223a10.231 10.231 0 0 1-5.156 17.138l-11.2 2.448a3.25 3.25 0 0 0-.184 6.3L13.4 74.51a10.241 10.241 0 0 1 4.106 17.43l-8.481 7.713a3.254 3.254 0 0 0 2.99 5.557l11.115-2.817a10.252 10.252 0 0 1 12.27 13.044l-3.488 10.92a3.1 3.1 0 0 0-.141 1.17 76.888 76.888 0 0 0-6.565 8.071c-14.31 20.279-11.353 36.258-5.785 46.517l-10.06 17.418h181.115zM138.9 123.2l12.816 22.2c-8.569 3.12-18.5 1.538-19.77 1.322q-4.176-1.251-8.06-2.08c-9.825-2.123-18.2-2.253-24.992-.379-.65.173-1.267.368-1.852.563l3.532-11.721a43.432 43.432 0 0 0 38.327-9.9m-108.373 16.14a73.738 73.738 0 0 1 14.505-15.231 83.4 83.4 0 0 0 6.359-5.72l.271-.271c3.943-3.911 16.3-16.824 19.651-27.971a3.252 3.252 0 0 0-.552-2.936 3.194 3.194 0 0 0-2.708-1.246l-22.739 1.052a3.248 3.248 0 0 0 .3 6.489l17.65-.811c-3.445 6.781-9.945 14.559-15.74 20.366a16.6 16.6 0 0 0-5.579 3.077 16.747 16.747 0 0 0-19.12-20.323 16.745 16.745 0 0 0-6.4-27.158 16.735 16.735 0 0 0 8.038-26.714 16.747 16.747 0 0 0 20.323-19.12 16.745 16.745 0 0 0 27.158-6.4 16.748 16.748 0 0 0 26.714 8.038 16.756 16.756 0 0 0 19.12 20.323 16.2 16.2 0 0 0-1.928 2.459 43.437 43.437 0 0 0-18.091 1.365 2.66 2.66 0 0 0-.3.087.247.247 0 0 0-.119.033 43.452 43.452 0 0 0-21.769 14.922 44.329 44.329 0 0 0-3.651 5.492L56 58.553a3.246 3.246 0 1 0-3.6 5.406l9.143 6.088 9.825 6.543a3.244 3.244 0 0 0 4.766-1.365A37.036 37.036 0 0 1 99.35 54.913c.054-.022.1-.033.141-.054A37.253 37.253 0 0 1 116.964 54c.011 0 .033.011.043.011a36.775 36.775 0 0 1 4.073 1.029 37.344 37.344 0 0 1 24.634 45.639 36.674 36.674 0 0 1-8.406 14.993l-.065.065a36.823 36.823 0 0 1-27.559 11.905 37.343 37.343 0 0 1-10.378-1.582 3.251 3.251 0 0 0-4.052 2.167l-6.836 22.706a3.265 3.265 0 0 0 1.6 3.857 3.2 3.2 0 0 0 4.041-.877c2.752-3.25 13.877-7.626 36.182-.921a3.107 3.107 0 0 0 .3.076c.054.011.217.043.466.087 2.719.466 16.2 2.362 26.866-3.423.018-.009.042-.024.063-.036h.009l.012-.01a24.053 24.053 0 0 0 7.8-6.646 109.577 109.577 0 0 1 2.73 30.343 74.077 74.077 0 0 1-3.737 19.651H37.591a46.644 46.644 0 0 1-11.635-12.6c-7.486-12.36-5.947-26.194 4.571-41.089m-9.912 53.688 2.806-4.842a52.83 52.83 0 0 0 4.29 4.842zm153.21-9.349 5.395 9.349h-7.626a74.981 74.981 0 0 0 2.232-9.349" style="fill:#5b5b5b"/>
            </g>
        </g>
    </g>
</svg>
