<svg xmlns="http://www.w3.org/2000/svg" width="50" height="50" viewBox="0 0 50 50">
    <defs>
        <clipPath id="oi6zo8fqza">
            <path data-name="사각형 1731" transform="translate(37 1680)" style="fill:#fff;stroke:#707070" d="M0 0h50v50H0z"/>
        </clipPath>
        <clipPath id="xmy7jrdptb">
            <path data-name="사각형 1730" style="fill:none" d="M0 0h44.999v47.976H0z"/>
        </clipPath>
    </defs>
    <g data-name="마스크 그룹 1663" transform="translate(-37 -1680)" style="clip-path:url(#oi6zo8fqza)">
        <g data-name="그룹 5258">
            <g data-name="그룹 5257" transform="translate(39.5 1681.25)" style="clip-path:url(#xmy7jrdptb)">
                <path data-name="패스 2834" d="M6.51 47.976h27.73a1.449 1.449 0 0 0 .274-.026c.251-.048 6.172-1.237 9.017-6.1 1.766-3.02 1.94-6.711.517-10.971a22.636 22.636 0 0 0-2.9-5.738 23.893 23.893 0 0 1-3.525-6.867l3.9.714.523-2.855-5.883-1.078a1.451 1.451 0 0 0-1.713 1.428c0 3.574 2.7 8 4.316 10.315a19.737 19.737 0 0 1 2.535 5c1.146 3.431 1.056 6.32-.27 8.586-1.995 3.411-6.18 4.515-6.94 4.691H7.125c-3.982-4.245-5.161-9.587-3.5-15.888A29.227 29.227 0 0 1 6 23.154a8.685 8.685 0 0 0 3.917 3.428 14.969 14.969 0 0 0 4.52 1.3c.047 0 .094.007.142.007 7.13 0 8.747 2.478 8.9 2.747a1.394 1.394 0 0 0 1.572.946 1.492 1.492 0 0 0 1.227-1.491v-6.5a1.451 1.451 0 0 0-1.451-1.451 9.62 9.62 0 0 1-9.619-9.757A9.676 9.676 0 0 1 24.722 2.9h.1a9.609 9.609 0 0 1 9.537 8.357 1.451 1.451 0 0 0 1.861 1.2l5.98-1.813-.844-2.777-4.45 1.352a12.523 12.523 0 1 0-21 12.095 12.419 12.419 0 0 0 7.465 3.647v1.826c-1.72-.956-4.442-1.789-8.713-1.8a12.182 12.182 0 0 1-3.55-1.053c-2.116-1.034-3.146-2.493-3.146-4.453a1.451 1.451 0 0 0-2.625-.854 32.275 32.275 0 0 0-4.5 9.732c-2 7.513-.4 14.149 4.646 19.192a1.451 1.451 0 0 0 1.026.425" style="fill:#ffb000"/>
                <path data-name="패스 2835" d="M159.592 97.725a2.172 2.172 0 1 0 2.172-2.172 2.172 2.172 0 0 0-2.172 2.172" transform="translate(-134.378 -86.308)" style="fill:#ffb000"/>
            </g>
        </g>
    </g>
</svg>
