<svg xmlns="http://www.w3.org/2000/svg" width="200" height="200" viewBox="0 0 200 200">
    <defs>
        <clipPath id="zwu9l610ca">
            <path data-name="사각형 994" style="fill:#e4e4e4" d="M0 0h199v200H0z"/>
        </clipPath>
    </defs>
    <g data-name="그룹 1448">
        <path data-name="패스 1192" d="M99.5 0C154.452 0 199 44.772 199 100s-44.548 100-99.5 100S0 155.228 0 100 44.548 0 99.5 0z" style="fill:none"/>
        <g data-name="그룹 1446">
            <g data-name="그룹 1445" style="clip-path:url(#zwu9l610ca)" transform="translate(1)">
                <path data-name="패스 1190" d="M99.5 0C44.546 0 0 44.77 0 100a100.143 100.143 0 0 0 48.188 85.69 95.779 95.779 0 0 0 14.169 7.1 97.23 97.23 0 0 0 17.91 5.34 99.259 99.259 0 0 0 80.476-19.32 96.865 96.865 0 0 0 10.03-9.04A99.9 99.9 0 0 0 199 100C199 44.77 154.454 0 99.5 0m70.746 156.794a99.854 99.854 0 0 0-4.37-20.854 4.589 4.589 0 0 0-8.736.23c-1.761 5.97-6.189 9.49-13.552 10.73a38.03 38.03 0 0 1-11.711 0c-12.965-3.82-21.97-3.74-28.049-2.38l1.642-5.57a39.616 39.616 0 0 0 44.924-28.46 39.962 39.962 0 0 0-26.477-48.82l-.408-.12a39.521 39.521 0 0 0-42.6 13.82 69.054 69.054 0 0 0-2.458 3.35L66.317 70.6a4.586 4.586 0 0 0-6.368 1.29 4.637 4.637 0 0 0 1.284 6.4l16.218 10.85a4.561 4.561 0 0 0 3.831.59 4.629 4.629 0 0 0 2.918-2.55 31.425 31.425 0 0 1 3.98-6.17 30.42 30.42 0 0 1 14.656-10.37 30.068 30.068 0 0 1 18.388-.15 30.788 30.788 0 0 1 20.328 37.5 30.388 30.388 0 0 1-37.939 21.05 4.6 4.6 0 0 0-5.711 3.11l-5.841 19.82a4.756 4.756 0 0 0 2.378 5.65 4.41 4.41 0 0 0 5.622-1.46c.706-.68 7.841-6.78 29.462-.33a3.448 3.448 0 0 0 .438.1 47.051 47.051 0 0 0 14.875.12c6.229-1.01 11.263-3.35 14.975-6.92a96.258 96.258 0 0 1 1.8 17.075 88.66 88.66 0 0 1-6.386 5.519A89.253 89.253 0 0 1 99.5 191a90.434 90.434 0 0 1-17.512-1.7 88.638 88.638 0 0 1-16.311-4.866 87.164 87.164 0 0 1-12.866-6.45 90.565 90.565 0 0 1-15.331-11.697c-.582-7.078 1.924-14.695 7.494-22.7a62.729 62.729 0 0 1 12.189-12.95c6.965-5.61 19.144-16.65 22.358-27.54a4.608 4.608 0 0 0-3.91-5.9L56.8 95.17a4.611 4.611 0 0 0-.985 9.17l12.467 1.35c-3.264 5.31-9.134 11.52-16.865 17.74a72.023 72.023 0 0 0-13.97 14.87 50.913 50.913 0 0 0-8.51 18.727A90.617 90.617 0 0 1 8.955 100c0-50.177 40.619-91 90.545-91s90.545 40.823 90.545 91a90.706 90.706 0 0 1-19.8 56.794" style="fill:#e4e4e4"/>
                <path data-name="패스 1191" d="M97.977 99.658a2.962 2.962 0 0 0 .871-.131l4.8-1.471 1.463 4.828a2.986 2.986 0 1 0 5.711-1.748l-1.464-4.828 4.8-1.47a3 3 0 0 0-1.74-5.741l-4.8 1.471-1.464-4.827a2.986 2.986 0 1 0-5.711 1.748l1.463 4.827-4.8 1.471a3 3 0 0 0 .87 5.871" transform="translate(-.475)" style="fill:#e4e4e4"/>
            </g>
        </g>
    </g>
</svg>
