<svg xmlns="http://www.w3.org/2000/svg" width="240" height="240" viewBox="0 0 240 240">
    <defs>
        <clipPath id="vf0q2jbopa">
            <path data-name="사각형 1032" style="fill:#e4e4e4" d="M0 0h144.454v133.448H0z"/>
        </clipPath>
        <clipPath id="4qxol3v2kb">
            <path data-name="사각형 1031" style="fill:#e4e4e4" d="M0 0h143.078v133.448H0z"/>
        </clipPath>
    </defs>
    <g data-name="그룹 1517">
        <path data-name="패스 1233" d="M120 0A120 120 0 1 1 0 120 120 120 0 0 1 120 0z" style="fill:#f9f9f9"/>
        <g data-name="마스크 그룹 1484" transform="translate(47.772 56.23)" style="clip-path:url(#vf0q2jbopa)">
            <g data-name="그룹 1516">
                <g data-name="그룹 1515" transform="translate(.688)" style="clip-path:url(#4qxol3v2kb)">
                    <path data-name="패스 1226" d="M115.053 81.589a3.182 3.182 0 0 0-3.272 1.816c-1.815 3.9-5.213 5.84-10.389 5.943a26.769 26.769 0 0 1-8.037-1.19c-8.508-3.928-14.695-4.791-19-4.481l1.69-3.63a27.452 27.452 0 1 0-12.354-43.806l-7.6-6.8a3.183 3.183 0 1 0-4.25 4.74l10.209 9.134a3.187 3.187 0 0 0 4.814-.665 20.971 20.971 0 0 1 3.176-3.881 21.109 21.109 0 0 1 33.9 23.831 21.117 21.117 0 0 1-28.173 10.5 3.186 3.186 0 0 0-4.231 1.543L65.52 87.562a3.269 3.269 0 0 0 1.061 4.1 3.059 3.059 0 0 0 4-.427c.556-.393 6.067-3.822 20.252 2.771q.141.066.288.117a32.677 32.677 0 0 0 10.2 1.59 19.071 19.071 0 0 0 10.962-3.188c.275 5.877-.065 14.529-3.184 22.7a24.489 24.489 0 0 1-33.207 13.385L40.02 111.934a24.2 24.2 0 0 1-11.055-10.251c-4.408-8.117-2.694-16.4 5.094-24.622a43.294 43.294 0 0 1 9.671-7.6c5.353-3.118 14.828-9.409 18.136-16.512a3.181 3.181 0 0 0-2.086-4.421l-12.7-3.3a3.182 3.182 0 1 0-1.6 6.159l8.417 2.186c-2.777 3.3-7.431 6.933-13.369 10.391a49.653 49.653 0 0 0-11.09 8.719c-5.389 5.688-8.449 11.645-9.1 17.7a24.215 24.215 0 0 0 3.031 14.326 30.213 30.213 0 0 0 9.411 10.376l-8.134 4.361a22.162 22.162 0 0 0-4.13-4.363c-3.49-2.8-9.518-5.795-18.417-4.2a2.545 2.545 0 0 0-1.6 4.022l20.651 27.8a2.549 2.549 0 0 0 3.564.527 13.8 13.8 0 0 0 3.5-3.754l9.634 12.968a2.549 2.549 0 0 0 3.564.527 12.913 12.913 0 0 0 5.441-10.106l20.425-10.761a2.54 2.54 0 0 0 .429-.286l5.493 2.553a31.058 31.058 0 0 0 24.674.616 30.413 30.413 0 0 0 17.171-17.5c6.062-15.878 2.881-32.648 2.743-33.354a3.184 3.184 0 0 0-2.741-2.547M36.3 124.138a20.891 20.891 0 0 0-4.823-2.571l6.58-3.528 5.216 2.425zM23.516 137.35l-16.2-21.808a16.176 16.176 0 0 1 11.7 5.053c-.072.012-.142.022-.214.035a2.545 2.545 0 0 0-1.6 4.022l7.567 10.185a7.627 7.627 0 0 1-1.254 2.512m19.546 1.766a2.545 2.545 0 0 0-1.321 2.694 7.388 7.388 0 0 1-1.523 5.281l-16.151-21.742a2.545 2.545 0 0 0 .275-.051 16.2 16.2 0 0 1 9.882 3.651 2.521 2.521 0 0 0 .323.273 15.424 15.424 0 0 1 3.6 4.438 2.549 2.549 0 0 0 3.506 1.151l13.776-7.387 5.072 2.507zm-1.716-9.921c-.307-.428-.668-.9-1.083-1.389l8.814-4.644 1.886.876z" transform="translate(-.103 -20.421)" style="fill:#e4e4e4"/>
                    <path data-name="패스 1227" d="M332.207 105.28a2.546 2.546 0 0 0 3.267 1.518l3.539-1.29 1.292 3.536a2.547 2.547 0 0 0 4.787-1.745l-1.292-3.535 3.539-1.29a2.546 2.546 0 1 0-1.747-4.782l-3.539 1.29-1.292-3.535a2.547 2.547 0 0 0-4.787 1.745l1.292 3.536-3.539 1.29a2.544 2.544 0 0 0-1.52 3.264" transform="translate(-261.656 -73.409)" style="fill:#e4e4e4"/>
                    <path data-name="패스 1228" d="M512.131 14.217a1.915 1.915 0 0 0 2.616-.665c.4-.666 1.558-2.088 2.6-2.234.179-.025.65-.092 1.417.622.626.583.587.923.572 1.051-.111.97-1.7 2.3-2.726 2.891a1.909 1.909 0 0 0 1.885 3.321c.434-.246 4.251-2.5 4.636-5.764a4.929 4.929 0 0 0-1.762-4.293 5.414 5.414 0 0 0-4.578-1.606c-3.122.455-5.114 3.7-5.331 4.071a1.9 1.9 0 0 0 .675 2.606" transform="translate(-402.763 -5.428)" style="fill:#e4e4e4"/>
                    <path data-name="패스 1229" d="M552.578 82.966c.49-.092 4.828-.989 6.249-3.957a4.928 4.928 0 0 0-.28-4.634 5.411 5.411 0 0 0-3.815-3c-3.1-.577-6.036 1.854-6.36 2.134a1.91 1.91 0 0 0 2.488 2.9c.592-.5 2.149-1.472 3.178-1.277.176.034.645.123 1.14 1.047.4.755.257 1.064.2 1.181-.419.881-2.346 1.629-3.512 1.855a1.909 1.909 0 0 0 .355 3.785 1.934 1.934 0 0 0 .357-.034" transform="translate(-431.527 -55.695)" style="fill:#e4e4e4"/>
                    <path data-name="패스 1230" d="M573.426 142.008c-2.418-2.024-6.17-1.344-6.59-1.261a1.909 1.909 0 1 0 .751 3.744c.722-.144 2.576-.233 3.385.444.138.116.506.423.483 1.475-.018.856-.3 1.054-.4 1.128-.8.563-2.845.269-3.972-.105a1.909 1.909 0 1 0-1.225 3.617 12.636 12.636 0 0 0 3.732.613 6.334 6.334 0 0 0 3.657-1 4.931 4.931 0 0 0 2.033-4.174 5.4 5.4 0 0 0-1.85-4.484" transform="translate(-444.795 -110.282)" style="fill:#e4e4e4"/>
                    <path data-name="패스 1231" d="M604.628 7.244a4.929 4.929 0 0 0-.705-4.588 5.413 5.413 0 0 0-4.075-2.635c-3.144-.29-5.84 2.4-6.137 2.71a1.91 1.91 0 0 0 2.745 2.657c.544-.554 2.007-1.666 3.047-1.565.179.017.654.063 1.232.937.472.715.354 1.037.31 1.158-.336.917-2.186 1.838-3.326 2.172a1.909 1.909 0 1 0 1.053 3.67c.479-.137 4.715-1.43 5.856-4.516" transform="translate(-467.34 .473)" style="fill:#e4e4e4"/>
                    <path data-name="패스 1232" d="M633.591 92.645a5.409 5.409 0 0 0-3.139-3.7c-2.923-1.183-6.285.613-6.659.822a1.909 1.909 0 1 0 1.865 3.332c.642-.359 2.378-1.012 3.358-.616.167.068.611.248.913 1.255.246.821.039 1.1-.039 1.2-.579.77-2.569 1.12-3.763 1.12h-.076a1.909 1.909 0 0 0-.026 3.818h.087c.794 0 4.928-.124 6.826-2.635a4.93 4.93 0 0 0 .652-4.6" transform="translate(-490.686 -69.292)" style="fill:#e4e4e4"/>
                </g>
            </g>
        </g>
    </g>
</svg>
