<svg width="80" height="22" viewBox="0 0 80 22" fill="none" xmlns="http://www.w3.org/2000/svg">
<mask id="mask0_174_2284" style="mask-type:alpha" maskUnits="userSpaceOnUse" x="0" y="0" width="80" height="22">
<g clip-path="url(#clip0_174_2284)">
<path d="M0 11C0 4.85833 4.89994 0 11.125 0C17.3501 0 22.25 4.85833 22.25 11C22.25 13.3222 21.572 15.3694 20.401 17.1111L21.3563 18.2417C21.7569 18.7306 21.8802 19.2194 21.8802 19.7389C21.8802 21.0222 20.8632 22 19.5997 22C18.9218 22 18.2746 21.725 17.8123 21.175L11.8646 14.1472C11.464 13.6583 11.3407 13.1694 11.3407 12.65C11.3407 11.3667 12.3577 10.3889 13.6212 10.3889C14.2992 10.3889 14.9463 10.6639 15.4086 11.2139L17.1035 13.2306C17.3193 12.6194 17.4734 11.825 17.4734 11C17.4734 7.33333 14.669 4.43056 11.125 4.43056C7.58103 4.43056 4.77667 7.33333 4.77667 11C4.77667 14.6667 7.58103 17.5694 11.125 17.5694C11.5256 17.5694 11.8954 17.5389 12.2652 17.4778C12.4193 17.4472 12.5734 17.4167 12.7583 17.4167C13.991 17.4167 15.008 18.425 15.008 19.6472C15.008 20.7167 14.2067 21.6333 13.1589 21.8167C12.5118 21.9389 11.803 22 11.125 22C4.89994 22 0 17.1417 0 11Z" fill="#FFB000"/>
<path d="M24.0981 7.94443C24.0981 6.75276 25.0535 5.80554 26.2553 5.80554C27.4572 5.80554 28.4126 6.75276 28.4126 7.94443V14.9722C28.4126 16.9583 29.6452 18.0278 31.1861 18.0278C32.727 18.0278 33.9596 16.9583 33.9596 14.9722V7.94443C33.9596 6.75276 34.915 5.80554 36.1169 5.80554C37.3187 5.80554 38.2741 6.75276 38.2741 7.94443V14.8194C38.2741 19.1278 35.1615 22 31.1861 22C27.2107 22 24.0981 19.1278 24.0981 14.8194V7.94443Z" fill="#FFB000"/>
<path d="M40.123 13.9028C40.123 9.38054 43.3897 5.80554 47.7349 5.80554C49.4298 5.80554 51.0015 6.3861 52.265 7.33332C52.5424 6.44721 53.3744 5.80554 54.3606 5.80554C55.5625 5.80554 56.5178 6.75276 56.5178 7.94443V19.8611C56.5178 21.0528 55.5625 22 54.3606 22C53.3744 22 52.5424 21.3583 52.265 20.4722C51.0015 21.45 49.4298 22 47.7349 22C43.3897 22 40.123 18.425 40.123 13.9028ZM52.2034 13.9028C52.2034 11.55 50.5084 9.77776 48.3512 9.77776C46.194 9.77776 44.4683 11.55 44.4683 13.9028C44.4683 16.2555 46.1632 18.0278 48.3512 18.0278C50.5393 18.0278 52.2034 16.2861 52.2034 13.9028Z" fill="#FFB000"/>
<path d="M58.9824 2.13889C58.9824 0.947222 59.9378 0 61.1396 0C62.3415 0 63.2968 0.947222 63.2968 2.13889V19.8611C63.2968 21.0528 62.3415 22 61.1396 22C59.9378 22 58.9824 21.0528 58.9824 19.8611V2.13889Z" fill="#FFB000"/>
<path d="M65.7627 2.13889C65.7627 0.947222 66.718 0 67.9199 0C69.1218 0 70.0771 0.947222 70.0771 2.13889V19.8611C70.0771 21.0528 69.1218 22 67.9199 22C66.718 22 65.7627 21.0528 65.7627 19.8611V2.13889ZM71.279 15.4611C70.94 15.0639 70.6934 14.5139 70.6934 13.9028C70.6934 13.4444 70.9092 12.8333 71.2482 12.4361L76.2714 6.50833C76.7028 6.01944 77.1651 5.80556 77.7506 5.80556C78.9216 5.80556 79.8153 6.63056 79.8153 7.76111C79.8153 8.21944 79.6921 8.64722 79.3531 9.04444L75.4085 13.6889L79.4764 18.4861C79.8153 18.8833 80.0002 19.4028 80.0002 19.8611C80.0002 21.0833 78.9525 22 77.8122 22C77.2267 22 76.5795 21.725 76.1789 21.2361L71.279 15.4611Z" fill="#FFB000"/>
</g>
</mask>
<g mask="url(#mask0_174_2284)">
<rect width="80" height="22" fill="#FFA700"/>
</g>
<defs>
<clipPath id="clip0_174_2284">
<rect width="80" height="22" fill="white"/>
</clipPath>
</defs>
</svg>
