<svg xmlns="http://www.w3.org/2000/svg" width="44" height="44" viewBox="0 0 44 44">
    <defs>
        <clipPath id="nhc5q49hva">
            <path data-name="사각형 914" style="fill:#ffba00" d="M0 0h44v44H0z"/>
        </clipPath>
    </defs>
    <g data-name="그룹 1264" style="clip-path:url(#nhc5q49hva)">
        <g data-name="그룹 1263">
            <g data-name="그룹 1262" style="clip-path:url(#nhc5q49hva)">
                <path data-name="패스 873" d="M25.334 12.366a4.239 4.239 0 0 1 1.591.309 4.428 4.428 0 0 1 1.217.746 2.023 2.023 0 0 1 .219.224.168.168 0 0 0 .12.053.188.188 0 0 0 .054-.008 10.8 10.8 0 0 0 2.51-.96.152.152 0 0 1 .066-.02.13.13 0 0 1 .046.01c.036.029.023.074 0 .111a3.874 3.874 0 0 1-.7 1.281c-.2.249-.7.866-1.041.923a8.682 8.682 0 0 0 2.118-.6.528.528 0 0 1 .077-.035c.009 0 .009.01.009.035v.018a.53.53 0 0 1-.111.334 8.314 8.314 0 0 1-1.673 1.74c-.095.072-.255.146-.255.282 0 3.457-.883 6.91-3.4 9.415a12.085 12.085 0 0 1-8.59 3.379 13.94 13.94 0 0 1-3.708-.5 11.759 11.759 0 0 1-2.379-.951 8.921 8.921 0 0 1-.739-.439c-.063-.05-.109-.1-.056-.128a.188.188 0 0 1 .092-.021 1.4 1.4 0 0 1 .19.021c.245.024.492.035.738.035a8.6 8.6 0 0 0 2.82-.491 5.435 5.435 0 0 0 2.343-1.242c.009-.013.018-.013.027-.027-.156-.036-.311-.036-.466-.064a4.589 4.589 0 0 1-3.43-2.873c-.041-.1-.012-.155.073-.155a.231.231 0 0 1 .045 0c.329.026.585.036.793.036a3.5 3.5 0 0 0 .84-.087 2.624 2.624 0 0 1-.554-.168 4.423 4.423 0 0 1-2.725-3.527 2.737 2.737 0 0 1-.029-.5c.006-.076.031-.118.078-.118a.171.171 0 0 1 .083.031 4.539 4.539 0 0 0 1.642.469h.022a7.176 7.176 0 0 1-.53-.466 4.373 4.373 0 0 1-.745-5.169c.042-.063.076-.094.114-.094s.073.029.122.085a13.407 13.407 0 0 0 8.627 4.391.267.267 0 0 0 .046 0c.047 0 .052-.024.041-.1a4.606 4.606 0 0 1 .045-1.8 4.366 4.366 0 0 1 .852-1.707 4.533 4.533 0 0 1 1.428-1.166 4.449 4.449 0 0 1 1.769-.5c.092-.006.184-.009.275-.009m0-2.2c-.139 0-.278 0-.417.013a6.69 6.69 0 0 0-2.646.746 6.793 6.793 0 0 0-2.119 1.73 6.625 6.625 0 0 0-1.217 2.33 10.313 10.313 0 0 1-5.036-3.179 2.345 2.345 0 0 0-1.776-.834 2.319 2.319 0 0 0-1.944 1.071 6.159 6.159 0 0 0-.58 5.263 2.361 2.361 0 0 0-.329 1.045 4.888 4.888 0 0 0 .037.943 6.647 6.647 0 0 0 1.5 3.417 2.4 2.4 0 0 0 .152.975 6.663 6.663 0 0 0 .933 1.723h-.166c-.159 0-.319-.007-.477-.021a3.308 3.308 0 0 0-.451-.035 2.385 2.385 0 0 0-1.079.254c-.057.029-.113.06-.168.094a2.25 2.25 0 0 0-.172 3.712 2.2 2.2 0 0 0 .168.124c.265.175.543.34.9.535a14.088 14.088 0 0 0 2.846 1.141 16.13 16.13 0 0 0 4.294.583 14.229 14.229 0 0 0 10.14-4.018 14.663 14.663 0 0 0 4.031-9.992 11.262 11.262 0 0 0 1.517-1.689 2.738 2.738 0 0 0 .545-1.646 2.263 2.263 0 0 0-.462-1.364 2.238 2.238 0 0 0-.87-2.116 2.288 2.288 0 0 0-.523-.295 2.479 2.479 0 0 0-.856-.164 2.325 2.325 0 0 0-1.049.252l-.055.029a8.268 8.268 0 0 1-1.065.477 6.533 6.533 0 0 0-1.186-.63 6.379 6.379 0 0 0-2.421-.472" transform="translate(1.848 2.017)" style="fill:#ffba00"/>
            </g>
        </g>
    </g>
</svg>
