<svg xmlns="http://www.w3.org/2000/svg" width="44" height="44" viewBox="0 0 44 44">
    <defs>
        <clipPath id="zc4hj1lhsa">
            <path data-name="사각형 914" style="fill:#d6d6d6" d="M0 0h36v36H0z"/>
        </clipPath>
    </defs>
    <rect data-name="사각형 896" width="44" height="44" rx="10" style="fill:#fdfaf2"/>
    <g data-name="그룹 1264" transform="translate(4 4)" style="clip-path:url(#zc4hj1lhsa)">
        <g data-name="그룹 1263">
            <g data-name="그룹 1262" style="clip-path:url(#zc4hj1lhsa)">
                <path data-name="패스 873" d="M22.27 11.966a3.468 3.468 0 0 1 1.3.253 3.623 3.623 0 0 1 1 .61 1.655 1.655 0 0 1 .179.184.137.137 0 0 0 .1.043.154.154 0 0 0 .044-.006 8.833 8.833 0 0 0 2.054-.786.124.124 0 0 1 .053-.016.106.106 0 0 1 .038.008c.03.023.019.06 0 .091a3.169 3.169 0 0 1-.575 1.049c-.164.2-.573.708-.851.755a7.1 7.1 0 0 0 1.733-.494.432.432 0 0 1 .063-.029c.007 0 .007.008.007.029v.014a.434.434 0 0 1-.091.274 6.8 6.8 0 0 1-1.369 1.424c-.077.059-.209.12-.209.23a10.56 10.56 0 0 1-2.785 7.7 9.888 9.888 0 0 1-7.028 2.765 11.405 11.405 0 0 1-3.034-.412 9.621 9.621 0 0 1-1.947-.778 7.096 7.096 0 0 1-.6-.359c-.051-.041-.089-.078-.046-.1a.154.154 0 0 1 .076-.017 1.145 1.145 0 0 1 .156.017c.2.02.4.029.6.029a7.035 7.035 0 0 0 2.308-.4 4.447 4.447 0 0 0 1.917-1.016c.007-.011.014-.011.022-.022-.128-.03-.255-.03-.382-.052A3.754 3.754 0 0 1 12.2 20.6c-.033-.08-.01-.127.059-.127a.189.189 0 0 1 .037 0c.269.022.479.03.649.03a2.865 2.865 0 0 0 .688-.071 2.147 2.147 0 0 1-.454-.138 3.619 3.619 0 0 1-2.229-2.885 2.239 2.239 0 0 1-.023-.405c0-.062.025-.1.064-.1a.14.14 0 0 1 .068.025 3.714 3.714 0 0 0 1.344.383h.018c-.153-.119-.3-.25-.434-.382a3.578 3.578 0 0 1-.609-4.229c.034-.051.062-.076.094-.076s.059.023.1.069a10.969 10.969 0 0 0 7.059 3.593.219.219 0 0 0 .038 0c.039 0 .042-.02.033-.086a3.768 3.768 0 0 1 .037-1.475 3.572 3.572 0 0 1 .7-1.4 3.709 3.709 0 0 1 1.168-.954 3.64 3.64 0 0 1 1.447-.41c.076 0 .15-.007.225-.007m0-1.8c-.113 0-.228 0-.341.011a5.473 5.473 0 0 0-2.164.61 5.558 5.558 0 0 0-1.743 1.424 5.42 5.42 0 0 0-1 1.906 8.438 8.438 0 0 1-4.117-2.6 1.919 1.919 0 0 0-1.453-.682 1.9 1.9 0 0 0-1.59.877 5.039 5.039 0 0 0-.471 4.31 1.932 1.932 0 0 0-.269.855 4 4 0 0 0 .031.771 5.439 5.439 0 0 0 1.226 2.8 1.959 1.959 0 0 0 .124.8 5.452 5.452 0 0 0 .763 1.409h-.136c-.13 0-.261-.005-.391-.017a2.707 2.707 0 0 0-.369-.029 1.951 1.951 0 0 0-.883.208 1.852 1.852 0 0 0-.138.076 1.841 1.841 0 0 0-.14 3.038c.044.036.091.07.138.1.217.143.445.278.737.437a11.526 11.526 0 0 0 2.328.933 13.2 13.2 0 0 0 3.514.477 11.642 11.642 0 0 0 8.3-3.288 12 12 0 0 0 3.3-8.176 9.215 9.215 0 0 0 1.241-1.386 2.24 2.24 0 0 0 .446-1.346 1.852 1.852 0 0 0-.378-1.116 1.831 1.831 0 0 0-.712-1.732 1.872 1.872 0 0 0-.428-.241 2.028 2.028 0 0 0-.7-.134 1.9 1.9 0 0 0-.859.206l-.045.023a6.765 6.765 0 0 1-.871.391 5.345 5.345 0 0 0-.97-.516 5.219 5.219 0 0 0-1.981-.386" transform="translate(-.03 -.198)" style="fill:#ffa711"/>
            </g>
        </g>
    </g>
</svg>
