<svg xmlns="http://www.w3.org/2000/svg" width="44" height="44" viewBox="0 0 44 44">
    <defs>
        <clipPath id="ufcnfhbaga">
            <path data-name="사각형 909" style="stroke:#5b5b5b;fill:none" d="M0 0h36v36H0z"/>
        </clipPath>
    </defs>
    <path data-name="패스 876" d="M10 0h24a10 10 0 0 1 10 10v24a10 10 0 0 1-10 10H10A10 10 0 0 1 0 34V10A10 10 0 0 1 10 0z" style="fill:#fdfaf2"/>
    <g data-name="그룹 1255" transform="translate(4 4)" style="clip-path:url(#ufcnfhbaga)">
        <rect data-name="사각형 908" width="18" height="18" rx="4" transform="translate(9 9)" style="stroke:#ffa711;stroke-miterlimit:10;stroke-width:2px;fill:none"/>
        <circle data-name="타원 17" cx="3.6" cy="3.6" r="3.6" transform="translate(14.4 14.4)" style="stroke:#ffa711;stroke-miterlimit:10;stroke-width:2px;fill:none"/>
        <path data-name="패스 872" d="M25.9 13a.9.9 0 1 0 .9.9.9.9 0 0 0-.9-.9" transform="translate(-2.5 -1.3)" style="fill:#ffa700"/>
    </g>
</svg>
