<svg width="40" height="40" viewBox="0 0 40 40" fill="none" xmlns="http://www.w3.org/2000/svg">
<circle cx="20" cy="20" r="20" fill="#FFA700"/>
<mask id="mask0_218_2463" style="mask-type:alpha" maskUnits="userSpaceOnUse" x="6" y="6" width="28" height="28">
<rect x="6" y="6" width="28" height="28" fill="#D9D9D9"/>
</mask>
<g mask="url(#mask0_218_2463)">
<path d="M24.375 25.25H10.375V12.125H29.625V20" stroke="white" stroke-width="2" stroke-linecap="round" stroke-linejoin="round"/>
<path d="M27 26.125C28.933 26.125 30.5 24.558 30.5 22.625C30.5 20.692 28.933 19.125 27 19.125C25.067 19.125 23.5 20.692 23.5 22.625C23.5 24.558 25.067 26.125 27 26.125Z" stroke="white" stroke-width="2" stroke-linecap="round" stroke-linejoin="round"/>
<path d="M29.625 26.125L31.375 27.875" stroke="white" stroke-width="2" stroke-linecap="round" stroke-linejoin="round"/>
<path d="M13.875 21.75L17.375 19.125L20.875 20L26.125 15.625" stroke="white" stroke-width="2" stroke-linecap="round" stroke-linejoin="round"/>
<path d="M20 25.25V27.875" stroke="white" stroke-width="2" stroke-linecap="round" stroke-linejoin="round"/>
<path d="M15.625 28.75H24.375" stroke="white" stroke-width="2" stroke-linecap="round" stroke-linejoin="round"/>
</g>
</svg>
