<svg xmlns="http://www.w3.org/2000/svg" width="current" height="current" viewBox="0 0 158 50">
    <defs>
        <clipPath id="900a0m4kpa">
            <path data-name="사각형 805" style="fill:none" d="M0 0h50v50H0z"/>
        </clipPath>
    </defs>
    <g data-name="그룹 1127">
        <path data-name="패스 845" d="M14.436 29.36a12.963 12.963 0 0 0 2.376-.216 2.612 2.612 0 0 0-.468-5.184 2.8 2.8 0 0 0-.576.072 7.984 7.984 0 0 1-1.332.108A7.526 7.526 0 0 1 7.02 16.4a7.526 7.526 0 0 1 7.416-7.74 7.526 7.526 0 0 1 7.416 7.74 8.193 8.193 0 0 1-.432 2.628l-1.98-2.376a2.678 2.678 0 0 0-2.088-.972 2.712 2.712 0 0 0-2.052 4.428l6.948 8.28a2.678 2.678 0 0 0 2.088.972 2.712 2.712 0 0 0 2.052-4.428L25.272 23.6a12.774 12.774 0 0 0 2.16-7.2 12.869 12.869 0 0 0-13-12.96 12.869 12.869 0 0 0-13 12.96 12.869 12.869 0 0 0 13.004 12.96zm15.156-8.46a8.085 8.085 0 0 0 8.28 8.46 8.085 8.085 0 0 0 8.28-8.46v-8.1a2.52 2.52 0 1 0-5.04 0v8.28c0 2.34-1.44 3.6-3.24 3.6s-3.24-1.26-3.24-3.6V12.8a2.52 2.52 0 0 0-5.04 0zM57.2 29.36a8.546 8.546 0 0 0 5.292-1.8 2.561 2.561 0 0 0 2.448 1.8 2.5 2.5 0 0 0 2.52-2.52V12.8a2.5 2.5 0 0 0-2.52-2.52 2.561 2.561 0 0 0-2.448 1.8 8.772 8.772 0 0 0-5.292-1.8c-5.076 0-8.892 4.212-8.892 9.54s3.82 9.54 8.892 9.54zm.72-4.68a4.6 4.6 0 0 1-4.536-4.86 4.53 4.53 0 1 1 9.036 0 4.593 4.593 0 0 1-4.496 4.86zm12.42 2.16a2.52 2.52 0 1 0 5.04 0V5.96a2.52 2.52 0 1 0-5.04 0zm7.92 0a2.52 2.52 0 1 0 5.04 0V5.96a2.52 2.52 0 1 0-5.04 0zm12.168 1.62a2.529 2.529 0 0 0 4.472-1.62 2.6 2.6 0 0 0-.612-1.62l-4.752-5.652L94.14 14.1a2.236 2.236 0 0 0 .54-1.512 2.3 2.3 0 0 0-2.412-2.3 2.159 2.159 0 0 0-1.728.828L84.672 18.1a2.938 2.938 0 0 0-.648 1.728 2.87 2.87 0 0 0 .684 1.836z" transform="translate(63.104 10)" style="fill:#ff9300"/>
        <g data-name="그룹 1126">
            <g data-name="그룹 1125" style="clip-path:url(#900a0m4kpa)">
                <path data-name="패스 843" d="M233.2 245.863a2.193 2.193 0 1 0-2.193-2.193 2.192 2.192 0 0 0 2.193 2.193" transform="translate(-210.395 -219.927)" style="fill:#ff920f"/>
                <path data-name="패스 844" d="M43.475 8.159A25 25 0 1 0 6.64 41.968a25.177 25.177 0 0 0 3.428 3.085 24.87 24.87 0 0 0 13.777 4.92c.395.018.794.027 1.186.027A24.94 24.94 0 0 0 42.6 42.759a24.948 24.948 0 0 0 7.376-16.6 24.836 24.836 0 0 0-6.5-18M38.16 28.092a1.973 1.973 0 0 0-1.365 1.881 2.98 2.98 0 0 1-1.981 2.735 8.754 8.754 0 0 1-2.5.752c-.8 0-1.574.044-2.3.12A10.75 10.75 0 0 0 31.987 32 10.678 10.678 0 0 0 24.5 13.838h-.11a10.674 10.674 0 0 0-9.709 6.238l-2.319-.928a1.977 1.977 0 0 0-1.469 3.672l4.307 1.722a1.978 1.978 0 0 0 2.7-1.579 2.362 2.362 0 0 1 .206-.82l.024-.062a6.752 6.752 0 0 1 6.265-4.288h.072a6.754 6.754 0 0 1 6.643 6.62 6.715 6.715 0 0 1-6.716 6.812 1.979 1.979 0 0 0-1.981 1.975v5.1a1.977 1.977 0 0 0 3.774.825c.115-.17 1.3-1.717 6.251-1.717.064 0 .129 0 .193-.009a12.432 12.432 0 0 0 3.83-1.1 8.336 8.336 0 0 0 2.561-1.852 21.076 21.076 0 0 1 1.215 3.385c.064.246.124.493.177.736-.31.352-.632.693-.957 1.015a20.545 20.545 0 0 1-26.72 1.888c-.25-.186-.508-.389-.768-.6.079-.313.174-.637.283-.963a14.656 14.656 0 0 1 1.882-3.708l.157-.225c1.265-1.814 3.382-4.851 3.382-7.88a1.978 1.978 0 0 0-2.51-1.9l-4.619 1.292a1.977 1.977 0 1 0 1.065 3.808l1.191-.333a27.746 27.746 0 0 1-1.746 2.738l-.167.239a18.884 18.884 0 0 0-2.033 3.756A20.538 20.538 0 0 1 24.977 4.463c.322 0 .649.008.972.022a20.537 20.537 0 0 1 19.566 21.464 20.655 20.655 0 0 1-2.24 8.427 25.747 25.747 0 0 0-2.9-5.571 1.973 1.973 0 0 0-2.21-.717" transform="translate(0 -.001)" style="fill:#ff920f"/>
            </g>
        </g>
    </g>
</svg>
