<svg xmlns="http://www.w3.org/2000/svg" width="current" height="current" viewBox="0 0 122 40">
    <defs>
        <clipPath id="6q03hdmw5a">
            <path data-name="사각형 805" style="fill:#ffba00" d="M0 0h40v40H0z"/>
        </clipPath>
    </defs>
    <g data-name="그룹 1127">
        <path data-name="패스 845" d="M11.452 23.44a9.972 9.972 0 0 0 1.831-.167 2.015 2.015 0 0 0-.361-4 2.152 2.152 0 0 0-.444.056 6.142 6.142 0 0 1-1.026.083 5.8 5.8 0 0 1-5.713-5.972 5.8 5.8 0 0 1 5.713-5.972 5.8 5.8 0 0 1 5.713 5.972 6.33 6.33 0 0 1-.333 2.028l-1.525-1.833a2.062 2.062 0 0 0-1.609-.75 2.093 2.093 0 0 0-1.58 3.415l5.353 6.389a2.062 2.062 0 0 0 1.609.75 2.093 2.093 0 0 0 1.581-3.417L19.8 19a9.867 9.867 0 0 0 1.664-5.556 9.922 9.922 0 0 0-10.012-10 9.922 9.922 0 0 0-10.012 10 9.922 9.922 0 0 0 10.012 9.996zm11.676-6.528a6.234 6.234 0 0 0 6.379 6.528 6.234 6.234 0 0 0 6.379-6.528v-6.25a1.941 1.941 0 1 0-3.883 0v6.389a2.51 2.51 0 1 1-4.992 0v-6.389a1.941 1.941 0 1 0-3.883 0zM44.4 23.44a6.577 6.577 0 0 0 4.077-1.389 1.973 1.973 0 0 0 1.886 1.389 1.931 1.931 0 0 0 1.943-1.94V10.662a1.931 1.931 0 0 0-1.941-1.944 1.973 1.973 0 0 0-1.886 1.389A6.751 6.751 0 0 0 44.4 8.718c-3.911 0-6.851 3.25-6.851 7.361s2.942 7.361 6.851 7.361zm.555-3.611a3.546 3.546 0 0 1-3.495-3.75 3.49 3.49 0 1 1 6.961 0 3.541 3.541 0 0 1-3.465 3.75zm9.57 1.671a1.941 1.941 0 1 0 3.883 0V5.384a1.941 1.941 0 1 0-3.883 0zm6.1 0a1.941 1.941 0 1 0 3.883 0V5.384a1.941 1.941 0 1 0-3.883 0zM70 22.746a1.951 1.951 0 0 0 1.47.694 1.972 1.972 0 0 0 1.97-1.94 2.006 2.006 0 0 0-.472-1.25l-3.661-4.361 3.55-4.222a1.727 1.727 0 0 0 .416-1.167 1.774 1.774 0 0 0-1.858-1.778 1.662 1.662 0 0 0-1.331.639l-4.521 5.389a2.269 2.269 0 0 0-.5 1.333 2.216 2.216 0 0 0 .527 1.417z" transform="translate(48.56 6.56)" style="fill:#ff9300"/>
        <g data-name="그룹 1126">
            <g data-name="그룹 1125" style="clip-path:url(#6q03hdmw5a)">
                <path data-name="패스 843" d="M232.766 244.986a1.754 1.754 0 1 0-1.754-1.754 1.754 1.754 0 0 0 1.754 1.754" transform="translate(-214.719 -224.237)" style="fill:#ffba00"/>
                <path data-name="패스 844" d="M34.78 6.527A20 20 0 1 0 5.312 33.575a20.142 20.142 0 0 0 2.742 2.468 19.9 19.9 0 0 0 11.022 3.936c.316.015.635.022.949.022a19.952 19.952 0 0 0 14.052-5.793 19.959 19.959 0 0 0 5.9-13.283 19.869 19.869 0 0 0-5.2-14.4m-4.249 15.949a1.579 1.579 0 0 0-1.092 1.5 2.384 2.384 0 0 1-1.585 2.188 7 7 0 0 1-2 .6c-.644 0-1.259.035-1.839.1A8.6 8.6 0 0 0 25.59 25.6a8.543 8.543 0 0 0-5.99-14.529h-.091a8.539 8.539 0 0 0-7.767 4.99l-1.852-.743a1.582 1.582 0 0 0-1.175 2.937l3.446 1.378a1.582 1.582 0 0 0 2.156-1.263 1.89 1.89 0 0 1 .165-.656l.019-.049a5.4 5.4 0 0 1 5.012-3.431h.057a5.4 5.4 0 0 1 5.315 5.3 5.372 5.372 0 0 1-5.373 5.45 1.584 1.584 0 0 0-1.581 1.582v4.083a1.582 1.582 0 0 0 3.019.66c.092-.136 1.044-1.373 5-1.373.051 0 .1 0 .154-.007a9.946 9.946 0 0 0 3.064-.881 6.669 6.669 0 0 0 2.049-1.481 16.861 16.861 0 0 1 .972 2.708c.052.2.1.395.141.589-.248.282-.505.555-.766.812a16.436 16.436 0 0 1-21.376 1.511c-.2-.149-.406-.311-.615-.483.063-.251.139-.509.226-.771a11.725 11.725 0 0 1 1.507-2.971l.126-.18c1.012-1.451 2.706-3.881 2.706-6.3a1.582 1.582 0 0 0-2.008-1.523l-3.7 1.034a1.582 1.582 0 1 0 .852 3.046l.953-.266a22.2 22.2 0 0 1-1.4 2.2l-.134.192a15.107 15.107 0 0 0-1.626 3A16.431 16.431 0 0 1 19.982 3.57c.257 0 .519.006.777.018a16.429 16.429 0 0 1 15.653 17.171A16.524 16.524 0 0 1 34.62 27.5a20.6 20.6 0 0 0-2.32-4.452 1.579 1.579 0 0 0-1.768-.574" transform="translate(-.201 -.001)" style="fill:#ffba00"/>
            </g>
        </g>
    </g>
</svg>
