<svg width="18" height="10" viewBox="0 0 18 10" fill="none" xmlns="http://www.w3.org/2000/svg">
<path d="M17 5C17 5.85264 16.3661 6.83482 14.8783 7.66138C13.4244 8.46911 11.3481 9 9 9C6.65195 9 4.57561 8.46911 3.12168 7.66138C1.63388 6.83482 1 5.85264 1 5C1 4.14736 1.63388 3.16518 3.12168 2.33862C4.57561 1.53089 6.65195 1 9 1C11.3481 1 13.4244 1.53089 14.8783 2.33862C16.3661 3.16518 17 4.14736 17 5Z" stroke="#E4E4E4" stroke-width="2" stroke-linecap="round" stroke-linejoin="round"/>
<path d="M10 5C10 5.55228 9.55228 6 9 6C8.44772 6 8 5.55228 8 5C8 4.44772 8.44772 4 9 4C9.55228 4 10 4.44772 10 5Z" stroke="#E4E4E4" stroke-width="2" stroke-linecap="round" stroke-linejoin="round"/>
</svg>
