<svg width="30" height="30" viewBox="0 0 30 30" fill="none" xmlns="http://www.w3.org/2000/svg">
<path d="M30 15C30 19.28 28.21 23.14 25.33 25.87C25.23 25.97 25.13 26.06 25.03 26.15C24.72 26.43 24.38 26.71 24.03 26.97C21.53 28.87 18.39 30 15 30C11.61 30 8.47 28.87 5.97 26.97C5.62 26.71 5.28 26.43 4.97 26.15C4.87 26.06 4.77001 25.97 4.67001 25.87C1.79001 23.14 0 19.28 0 15C0 6.72 6.72 0 15 0C23.28 0 30 6.72 30 15Z" fill="#E4E4E4"/>
<path d="M15 16C16.933 16 18.5 14.433 18.5 12.5C18.5 10.567 16.933 9 15 9C13.067 9 11.5 10.567 11.5 12.5C11.5 14.433 13.067 16 15 16Z" fill="white"/>
<path d="M25.3299 25.87C25.2299 25.97 25.1299 26.06 25.0299 26.15C24.7199 26.43 24.3799 26.71 24.0299 26.97C21.5299 28.87 18.3899 30 14.9999 30C11.6099 30 8.46991 28.87 5.96991 26.97C5.61991 26.71 5.27991 26.43 4.96991 26.15C4.86991 26.06 4.76992 25.97 4.66992 25.87C6.76992 22.36 10.6099 20 14.9999 20C19.3899 20 23.2299 22.36 25.3299 25.87Z" fill="white"/>
</svg>
