<svg data-name="그룹 5262" xmlns="http://www.w3.org/2000/svg" width="35.999" height="38.381" viewBox="0 0 35.999 38.381">
    <defs>
        <clipPath id="kbzyqvjaba">
            <path data-name="사각형 1734" style="fill:#ffba13" d="M0 0h35.999v38.381H0z"/>
        </clipPath>
    </defs>
    <g data-name="그룹 5261" style="clip-path:url(#kbzyqvjaba)">
        <path data-name="패스 2838" d="M30.791 38.381H8.608a1.159 1.159 0 0 1-.219-.021c-.2-.039-4.938-.99-7.213-4.882C-.238 31.062-.377 28.109.762 24.7a18.109 18.109 0 0 1 2.323-4.59A19.114 19.114 0 0 0 5.9 14.618l-3.118.571-.414-2.289 4.706-.862a1.161 1.161 0 0 1 1.37 1.142c0 2.859-2.164 6.4-3.453 8.252a15.79 15.79 0 0 0-2.028 4c-.917 2.745-.844 5.056.216 6.869 1.6 2.729 4.944 3.612 5.552 3.753H30.3c3.186-3.4 4.129-7.67 2.8-12.711a23.381 23.381 0 0 0-1.9-4.825 6.948 6.948 0 0 1-3.133 2.742 11.975 11.975 0 0 1-3.616 1.042c-.038 0-.076.005-.113.005-5.7 0-7 1.982-7.121 2.2a1.115 1.115 0 0 1-1.257.757 1.193 1.193 0 0 1-.982-1.193v-5.2a1.161 1.161 0 0 1 1.161-1.161 7.7 7.7 0 0 0 7.695-7.806 7.741 7.741 0 0 0-7.613-7.585h-.081a7.687 7.687 0 0 0-7.63 6.689 1.161 1.161 0 0 1-1.489.96L2.24 8.515l.675-2.222 3.56 1.082a10.019 10.019 0 1 1 16.8 9.676 9.936 9.936 0 0 1-5.975 2.918v1.461a14.32 14.32 0 0 1 6.971-1.44 9.746 9.746 0 0 0 2.84-.842 3.834 3.834 0 0 0 2.519-3.564 1.161 1.161 0 0 1 2.1-.683 25.82 25.82 0 0 1 3.6 7.785c1.6 6.01.317 11.319-3.717 15.354a1.161 1.161 0 0 1-.821.34" style="fill:#ffba13"/>
        <path data-name="패스 2839" d="M163.067 97.291a1.738 1.738 0 1 1-1.738-1.738 1.738 1.738 0 0 1 1.738 1.738" transform="translate(-147.239 -88.157)" style="fill:#ffba13"/>
    </g>
</svg>
