<svg xmlns="http://www.w3.org/2000/svg" width="1920" height="1080" viewBox="0 0 1920 1080">
    <defs>
        <clipPath id="0f7vuzutza">
            <path data-name="사각형 1782" style="fill:#fff;stroke:#707070" d="M0 0h1920v1080H0z"/>
        </clipPath>
    </defs>
    <g data-name="마스크 그룹 1670" style="clip-path:url(#0f7vuzutza)">
        <g data-name="그룹 5312">
            <path data-name="사각형 1781" style="fill:#fdfaf2" d="M0 0h1920v1080H0z"/>
            <g data-name="그룹 5311">
                <path data-name="패스 2930" d="M103.968 258.56a92.181 92.181 0 0 0 16.9-1.536 18.572 18.572 0 0 0-3.328-36.864 19.9 19.9 0 0 0-4.1.512 56.774 56.774 0 0 1-9.472.768c-29.44 0-52.736-24.32-52.736-55.04s23.3-55.04 52.736-55.04S156.7 135.68 156.7 166.4a58.258 58.258 0 0 1-3.072 18.688l-14.08-16.9a19.044 19.044 0 0 0-14.848-6.908 19.284 19.284 0 0 0-14.592 31.488l49.408 58.88a19.044 19.044 0 0 0 14.848 6.912 19.284 19.284 0 0 0 14.592-31.488l-7.936-9.472a90.838 90.838 0 0 0 15.36-51.2c0-51.456-40.7-92.16-92.416-92.16s-92.416 40.7-92.416 92.16 40.708 92.16 92.42 92.16zm107.776-60.16c0 36.1 25.856 60.16 58.88 60.16S329.5 234.5 329.5 198.4v-57.6a17.92 17.92 0 1 0-35.84 0v58.88c0 16.64-10.24 25.6-23.04 25.6s-23.04-8.96-23.04-25.6V140.8a17.92 17.92 0 0 0-35.84 0zM408.1 258.56a60.771 60.771 0 0 0 37.632-12.8 18.209 18.209 0 0 0 17.408 12.8 17.81 17.81 0 0 0 17.92-17.92V140.8a17.81 17.81 0 0 0-17.92-17.92 18.209 18.209 0 0 0-17.408 12.8 62.375 62.375 0 0 0-37.632-12.8c-36.1 0-63.232 29.952-63.232 67.84S372 258.56 408.1 258.56zm5.12-33.28c-18.176 0-32.256-14.592-32.256-34.56 0-19.712 14.08-34.56 32.256-34.56 17.92 0 32 14.848 32 34.56-.004 19.968-14.084 34.56-32.004 34.56zm88.32 15.36a17.92 17.92 0 1 0 35.84 0V92.16a17.92 17.92 0 1 0-35.84 0zm56.32 0a17.92 17.92 0 0 0 35.84 0V92.16a17.92 17.92 0 0 0-35.84 0zm86.528 11.52a18.019 18.019 0 0 0 13.568 6.4c9.472 0 18.176-7.68 18.176-17.92a18.467 18.467 0 0 0-4.352-11.52l-33.792-40.192 32.768-38.912a15.9 15.9 0 0 0 3.84-10.752c0-9.472-7.424-16.384-17.152-16.384-4.864 0-8.7 1.792-12.288 5.888l-41.728 49.664a20.9 20.9 0 0 0-4.608 12.288 20.407 20.407 0 0 0 4.864 13.056z" transform="translate(1320 317)" style="mix-blend-mode:multiply;isolation:isolate;fill:#fdfaf2"/>
                <path data-name="패스 2941" d="M103.968 258.56a92.181 92.181 0 0 0 16.9-1.536 18.572 18.572 0 0 0-3.328-36.864 19.9 19.9 0 0 0-4.1.512 56.774 56.774 0 0 1-9.472.768c-29.44 0-52.736-24.32-52.736-55.04s23.3-55.04 52.736-55.04S156.7 135.68 156.7 166.4a58.258 58.258 0 0 1-3.072 18.688l-14.08-16.9a19.044 19.044 0 0 0-14.848-6.908 19.284 19.284 0 0 0-14.592 31.488l49.408 58.88a19.044 19.044 0 0 0 14.848 6.912 19.284 19.284 0 0 0 14.592-31.488l-7.936-9.472a90.838 90.838 0 0 0 15.36-51.2c0-51.456-40.7-92.16-92.416-92.16s-92.416 40.7-92.416 92.16 40.708 92.16 92.42 92.16zm107.776-60.16c0 36.1 25.856 60.16 58.88 60.16S329.5 234.5 329.5 198.4v-57.6a17.92 17.92 0 1 0-35.84 0v58.88c0 16.64-10.24 25.6-23.04 25.6s-23.04-8.96-23.04-25.6V140.8a17.92 17.92 0 0 0-35.84 0zM408.1 258.56a60.771 60.771 0 0 0 37.632-12.8 18.209 18.209 0 0 0 17.408 12.8 17.81 17.81 0 0 0 17.92-17.92V140.8a17.81 17.81 0 0 0-17.92-17.92 18.209 18.209 0 0 0-17.408 12.8 62.375 62.375 0 0 0-37.632-12.8c-36.1 0-63.232 29.952-63.232 67.84S372 258.56 408.1 258.56zm5.12-33.28c-18.176 0-32.256-14.592-32.256-34.56 0-19.712 14.08-34.56 32.256-34.56 17.92 0 32 14.848 32 34.56-.004 19.968-14.084 34.56-32.004 34.56zm88.32 15.36a17.92 17.92 0 1 0 35.84 0V92.16a17.92 17.92 0 1 0-35.84 0zm56.32 0a17.92 17.92 0 0 0 35.84 0V92.16a17.92 17.92 0 0 0-35.84 0zm86.528 11.52a18.019 18.019 0 0 0 13.568 6.4c9.472 0 18.176-7.68 18.176-17.92a18.467 18.467 0 0 0-4.352-11.52l-33.792-40.192 32.768-38.912a15.9 15.9 0 0 0 3.84-10.752c0-9.472-7.424-16.384-17.152-16.384-4.864 0-8.7 1.792-12.288 5.888l-41.728 49.664a20.9 20.9 0 0 0-4.608 12.288 20.407 20.407 0 0 0 4.864 13.056z" transform="translate(1320 -178)" style="mix-blend-mode:multiply;isolation:isolate;fill:#fdfaf2"/>
                <path data-name="패스 2929" d="M103.968 258.56a92.181 92.181 0 0 0 16.9-1.536 18.572 18.572 0 0 0-3.328-36.864 19.9 19.9 0 0 0-4.1.512 56.774 56.774 0 0 1-9.472.768c-29.44 0-52.736-24.32-52.736-55.04s23.3-55.04 52.736-55.04S156.7 135.68 156.7 166.4a58.258 58.258 0 0 1-3.072 18.688l-14.08-16.9a19.044 19.044 0 0 0-14.848-6.908 19.284 19.284 0 0 0-14.592 31.488l49.408 58.88a19.044 19.044 0 0 0 14.848 6.912 19.284 19.284 0 0 0 14.592-31.488l-7.936-9.472a90.838 90.838 0 0 0 15.36-51.2c0-51.456-40.7-92.16-92.416-92.16s-92.416 40.7-92.416 92.16 40.708 92.16 92.42 92.16zm107.776-60.16c0 36.1 25.856 60.16 58.88 60.16S329.5 234.5 329.5 198.4v-57.6a17.92 17.92 0 1 0-35.84 0v58.88c0 16.64-10.24 25.6-23.04 25.6s-23.04-8.96-23.04-25.6V140.8a17.92 17.92 0 0 0-35.84 0zM408.1 258.56a60.771 60.771 0 0 0 37.632-12.8 18.209 18.209 0 0 0 17.408 12.8 17.81 17.81 0 0 0 17.92-17.92V140.8a17.81 17.81 0 0 0-17.92-17.92 18.209 18.209 0 0 0-17.408 12.8 62.375 62.375 0 0 0-37.632-12.8c-36.1 0-63.232 29.952-63.232 67.84S372 258.56 408.1 258.56zm5.12-33.28c-18.176 0-32.256-14.592-32.256-34.56 0-19.712 14.08-34.56 32.256-34.56 17.92 0 32 14.848 32 34.56-.004 19.968-14.084 34.56-32.004 34.56zm88.32 15.36a17.92 17.92 0 1 0 35.84 0V92.16a17.92 17.92 0 1 0-35.84 0zm56.32 0a17.92 17.92 0 0 0 35.84 0V92.16a17.92 17.92 0 0 0-35.84 0zm86.528 11.52a18.019 18.019 0 0 0 13.568 6.4c9.472 0 18.176-7.68 18.176-17.92a18.467 18.467 0 0 0-4.352-11.52l-33.792-40.192 32.768-38.912a15.9 15.9 0 0 0 3.84-10.752c0-9.472-7.424-16.384-17.152-16.384-4.864 0-8.7 1.792-12.288 5.888l-41.728 49.664a20.9 20.9 0 0 0-4.608 12.288 20.407 20.407 0 0 0 4.864 13.056z" transform="translate(-80 317)" style="mix-blend-mode:multiply;isolation:isolate;fill:#fdfaf2"/>
                <path data-name="패스 2939" d="M103.968 258.56a92.181 92.181 0 0 0 16.9-1.536 18.572 18.572 0 0 0-3.328-36.864 19.9 19.9 0 0 0-4.1.512 56.774 56.774 0 0 1-9.472.768c-29.44 0-52.736-24.32-52.736-55.04s23.3-55.04 52.736-55.04S156.7 135.68 156.7 166.4a58.258 58.258 0 0 1-3.072 18.688l-14.08-16.9a19.044 19.044 0 0 0-14.848-6.908 19.284 19.284 0 0 0-14.592 31.488l49.408 58.88a19.044 19.044 0 0 0 14.848 6.912 19.284 19.284 0 0 0 14.592-31.488l-7.936-9.472a90.838 90.838 0 0 0 15.36-51.2c0-51.456-40.7-92.16-92.416-92.16s-92.416 40.7-92.416 92.16 40.708 92.16 92.42 92.16zm107.776-60.16c0 36.1 25.856 60.16 58.88 60.16S329.5 234.5 329.5 198.4v-57.6a17.92 17.92 0 1 0-35.84 0v58.88c0 16.64-10.24 25.6-23.04 25.6s-23.04-8.96-23.04-25.6V140.8a17.92 17.92 0 0 0-35.84 0zM408.1 258.56a60.771 60.771 0 0 0 37.632-12.8 18.209 18.209 0 0 0 17.408 12.8 17.81 17.81 0 0 0 17.92-17.92V140.8a17.81 17.81 0 0 0-17.92-17.92 18.209 18.209 0 0 0-17.408 12.8 62.375 62.375 0 0 0-37.632-12.8c-36.1 0-63.232 29.952-63.232 67.84S372 258.56 408.1 258.56zm5.12-33.28c-18.176 0-32.256-14.592-32.256-34.56 0-19.712 14.08-34.56 32.256-34.56 17.92 0 32 14.848 32 34.56-.004 19.968-14.084 34.56-32.004 34.56zm88.32 15.36a17.92 17.92 0 1 0 35.84 0V92.16a17.92 17.92 0 1 0-35.84 0zm56.32 0a17.92 17.92 0 0 0 35.84 0V92.16a17.92 17.92 0 0 0-35.84 0zm86.528 11.52a18.019 18.019 0 0 0 13.568 6.4c9.472 0 18.176-7.68 18.176-17.92a18.467 18.467 0 0 0-4.352-11.52l-33.792-40.192 32.768-38.912a15.9 15.9 0 0 0 3.84-10.752c0-9.472-7.424-16.384-17.152-16.384-4.864 0-8.7 1.792-12.288 5.888l-41.728 49.664a20.9 20.9 0 0 0-4.608 12.288 20.407 20.407 0 0 0 4.864 13.056z" transform="translate(-80 -178)" style="mix-blend-mode:multiply;isolation:isolate;fill:#fdfaf2"/>
                <path data-name="패스 2938" d="M103.968 258.56a92.181 92.181 0 0 0 16.9-1.536 18.572 18.572 0 0 0-3.328-36.864 19.9 19.9 0 0 0-4.1.512 56.774 56.774 0 0 1-9.472.768c-29.44 0-52.736-24.32-52.736-55.04s23.3-55.04 52.736-55.04S156.7 135.68 156.7 166.4a58.258 58.258 0 0 1-3.072 18.688l-14.08-16.9a19.044 19.044 0 0 0-14.848-6.908 19.284 19.284 0 0 0-14.592 31.488l49.408 58.88a19.044 19.044 0 0 0 14.848 6.912 19.284 19.284 0 0 0 14.592-31.488l-7.936-9.472a90.838 90.838 0 0 0 15.36-51.2c0-51.456-40.7-92.16-92.416-92.16s-92.416 40.7-92.416 92.16 40.708 92.16 92.42 92.16zm107.776-60.16c0 36.1 25.856 60.16 58.88 60.16S329.5 234.5 329.5 198.4v-57.6a17.92 17.92 0 1 0-35.84 0v58.88c0 16.64-10.24 25.6-23.04 25.6s-23.04-8.96-23.04-25.6V140.8a17.92 17.92 0 0 0-35.84 0zM408.1 258.56a60.771 60.771 0 0 0 37.632-12.8 18.209 18.209 0 0 0 17.408 12.8 17.81 17.81 0 0 0 17.92-17.92V140.8a17.81 17.81 0 0 0-17.92-17.92 18.209 18.209 0 0 0-17.408 12.8 62.375 62.375 0 0 0-37.632-12.8c-36.1 0-63.232 29.952-63.232 67.84S372 258.56 408.1 258.56zm5.12-33.28c-18.176 0-32.256-14.592-32.256-34.56 0-19.712 14.08-34.56 32.256-34.56 17.92 0 32 14.848 32 34.56-.004 19.968-14.084 34.56-32.004 34.56zm88.32 15.36a17.92 17.92 0 1 0 35.84 0V92.16a17.92 17.92 0 1 0-35.84 0zm56.32 0a17.92 17.92 0 0 0 35.84 0V92.16a17.92 17.92 0 0 0-35.84 0zm86.528 11.52a18.019 18.019 0 0 0 13.568 6.4c9.472 0 18.176-7.68 18.176-17.92a18.467 18.467 0 0 0-4.352-11.52l-33.792-40.192 32.768-38.912a15.9 15.9 0 0 0 3.84-10.752c0-9.472-7.424-16.384-17.152-16.384-4.864 0-8.7 1.792-12.288 5.888l-41.728 49.664a20.9 20.9 0 0 0-4.608 12.288 20.407 20.407 0 0 0 4.864 13.056z" transform="translate(1320 827)" style="mix-blend-mode:multiply;isolation:isolate;fill:#fdfaf2"/>
                <path data-name="패스 2937" d="M103.968 258.56a92.181 92.181 0 0 0 16.9-1.536 18.572 18.572 0 0 0-3.328-36.864 19.9 19.9 0 0 0-4.1.512 56.774 56.774 0 0 1-9.472.768c-29.44 0-52.736-24.32-52.736-55.04s23.3-55.04 52.736-55.04S156.7 135.68 156.7 166.4a58.258 58.258 0 0 1-3.072 18.688l-14.08-16.9a19.044 19.044 0 0 0-14.848-6.908 19.284 19.284 0 0 0-14.592 31.488l49.408 58.88a19.044 19.044 0 0 0 14.848 6.912 19.284 19.284 0 0 0 14.592-31.488l-7.936-9.472a90.838 90.838 0 0 0 15.36-51.2c0-51.456-40.7-92.16-92.416-92.16s-92.416 40.7-92.416 92.16 40.708 92.16 92.42 92.16zm107.776-60.16c0 36.1 25.856 60.16 58.88 60.16S329.5 234.5 329.5 198.4v-57.6a17.92 17.92 0 1 0-35.84 0v58.88c0 16.64-10.24 25.6-23.04 25.6s-23.04-8.96-23.04-25.6V140.8a17.92 17.92 0 0 0-35.84 0zM408.1 258.56a60.771 60.771 0 0 0 37.632-12.8 18.209 18.209 0 0 0 17.408 12.8 17.81 17.81 0 0 0 17.92-17.92V140.8a17.81 17.81 0 0 0-17.92-17.92 18.209 18.209 0 0 0-17.408 12.8 62.375 62.375 0 0 0-37.632-12.8c-36.1 0-63.232 29.952-63.232 67.84S372 258.56 408.1 258.56zm5.12-33.28c-18.176 0-32.256-14.592-32.256-34.56 0-19.712 14.08-34.56 32.256-34.56 17.92 0 32 14.848 32 34.56-.004 19.968-14.084 34.56-32.004 34.56zm88.32 15.36a17.92 17.92 0 1 0 35.84 0V92.16a17.92 17.92 0 1 0-35.84 0zm56.32 0a17.92 17.92 0 0 0 35.84 0V92.16a17.92 17.92 0 0 0-35.84 0zm86.528 11.52a18.019 18.019 0 0 0 13.568 6.4c9.472 0 18.176-7.68 18.176-17.92a18.467 18.467 0 0 0-4.352-11.52l-33.792-40.192 32.768-38.912a15.9 15.9 0 0 0 3.84-10.752c0-9.472-7.424-16.384-17.152-16.384-4.864 0-8.7 1.792-12.288 5.888l-41.728 49.664a20.9 20.9 0 0 0-4.608 12.288 20.407 20.407 0 0 0 4.864 13.056z" transform="translate(620 827)" style="mix-blend-mode:multiply;isolation:isolate;fill:#fdfaf2"/>
                <path data-name="패스 2936" d="M103.968 258.56a92.181 92.181 0 0 0 16.9-1.536 18.572 18.572 0 0 0-3.328-36.864 19.9 19.9 0 0 0-4.1.512 56.774 56.774 0 0 1-9.472.768c-29.44 0-52.736-24.32-52.736-55.04s23.3-55.04 52.736-55.04S156.7 135.68 156.7 166.4a58.258 58.258 0 0 1-3.072 18.688l-14.08-16.9a19.044 19.044 0 0 0-14.848-6.908 19.284 19.284 0 0 0-14.592 31.488l49.408 58.88a19.044 19.044 0 0 0 14.848 6.912 19.284 19.284 0 0 0 14.592-31.488l-7.936-9.472a90.838 90.838 0 0 0 15.36-51.2c0-51.456-40.7-92.16-92.416-92.16s-92.416 40.7-92.416 92.16 40.708 92.16 92.42 92.16zm107.776-60.16c0 36.1 25.856 60.16 58.88 60.16S329.5 234.5 329.5 198.4v-57.6a17.92 17.92 0 1 0-35.84 0v58.88c0 16.64-10.24 25.6-23.04 25.6s-23.04-8.96-23.04-25.6V140.8a17.92 17.92 0 0 0-35.84 0zM408.1 258.56a60.771 60.771 0 0 0 37.632-12.8 18.209 18.209 0 0 0 17.408 12.8 17.81 17.81 0 0 0 17.92-17.92V140.8a17.81 17.81 0 0 0-17.92-17.92 18.209 18.209 0 0 0-17.408 12.8 62.375 62.375 0 0 0-37.632-12.8c-36.1 0-63.232 29.952-63.232 67.84S372 258.56 408.1 258.56zm5.12-33.28c-18.176 0-32.256-14.592-32.256-34.56 0-19.712 14.08-34.56 32.256-34.56 17.92 0 32 14.848 32 34.56-.004 19.968-14.084 34.56-32.004 34.56zm88.32 15.36a17.92 17.92 0 1 0 35.84 0V92.16a17.92 17.92 0 1 0-35.84 0zm56.32 0a17.92 17.92 0 0 0 35.84 0V92.16a17.92 17.92 0 0 0-35.84 0zm86.528 11.52a18.019 18.019 0 0 0 13.568 6.4c9.472 0 18.176-7.68 18.176-17.92a18.467 18.467 0 0 0-4.352-11.52l-33.792-40.192 32.768-38.912a15.9 15.9 0 0 0 3.84-10.752c0-9.472-7.424-16.384-17.152-16.384-4.864 0-8.7 1.792-12.288 5.888l-41.728 49.664a20.9 20.9 0 0 0-4.608 12.288 20.407 20.407 0 0 0 4.864 13.056z" transform="translate(-80 827)" style="mix-blend-mode:multiply;isolation:isolate;fill:#fdfaf2"/>
                <path data-name="패스 2927" d="M103.968 258.56a92.181 92.181 0 0 0 16.9-1.536 18.572 18.572 0 0 0-3.328-36.864 19.9 19.9 0 0 0-4.1.512 56.774 56.774 0 0 1-9.472.768c-29.44 0-52.736-24.32-52.736-55.04s23.3-55.04 52.736-55.04S156.7 135.68 156.7 166.4a58.258 58.258 0 0 1-3.072 18.688l-14.08-16.9a19.044 19.044 0 0 0-14.848-6.908 19.284 19.284 0 0 0-14.592 31.488l49.408 58.88a19.044 19.044 0 0 0 14.848 6.912 19.284 19.284 0 0 0 14.592-31.488l-7.936-9.472a90.838 90.838 0 0 0 15.36-51.2c0-51.456-40.7-92.16-92.416-92.16s-92.416 40.7-92.416 92.16 40.708 92.16 92.42 92.16zm107.776-60.16c0 36.1 25.856 60.16 58.88 60.16S329.5 234.5 329.5 198.4v-57.6a17.92 17.92 0 1 0-35.84 0v58.88c0 16.64-10.24 25.6-23.04 25.6s-23.04-8.96-23.04-25.6V140.8a17.92 17.92 0 0 0-35.84 0zM408.1 258.56a60.771 60.771 0 0 0 37.632-12.8 18.209 18.209 0 0 0 17.408 12.8 17.81 17.81 0 0 0 17.92-17.92V140.8a17.81 17.81 0 0 0-17.92-17.92 18.209 18.209 0 0 0-17.408 12.8 62.375 62.375 0 0 0-37.632-12.8c-36.1 0-63.232 29.952-63.232 67.84S372 258.56 408.1 258.56zm5.12-33.28c-18.176 0-32.256-14.592-32.256-34.56 0-19.712 14.08-34.56 32.256-34.56 17.92 0 32 14.848 32 34.56-.004 19.968-14.084 34.56-32.004 34.56zm88.32 15.36a17.92 17.92 0 1 0 35.84 0V92.16a17.92 17.92 0 1 0-35.84 0zm56.32 0a17.92 17.92 0 0 0 35.84 0V92.16a17.92 17.92 0 0 0-35.84 0zm86.528 11.52a18.019 18.019 0 0 0 13.568 6.4c9.472 0 18.176-7.68 18.176-17.92a18.467 18.467 0 0 0-4.352-11.52l-33.792-40.192 32.768-38.912a15.9 15.9 0 0 0 3.84-10.752c0-9.472-7.424-16.384-17.152-16.384-4.864 0-8.7 1.792-12.288 5.888l-41.728 49.664a20.9 20.9 0 0 0-4.608 12.288 20.407 20.407 0 0 0 4.864 13.056z" transform="translate(1612.176 61)" style="mix-blend-mode:multiply;isolation:isolate;fill:#fdfaf2"/>
                <path data-name="패스 2926" d="M103.968 258.56a92.181 92.181 0 0 0 16.9-1.536 18.572 18.572 0 0 0-3.328-36.864 19.9 19.9 0 0 0-4.1.512 56.774 56.774 0 0 1-9.472.768c-29.44 0-52.736-24.32-52.736-55.04s23.3-55.04 52.736-55.04S156.7 135.68 156.7 166.4a58.258 58.258 0 0 1-3.072 18.688l-14.08-16.9a19.044 19.044 0 0 0-14.848-6.908 19.284 19.284 0 0 0-14.592 31.488l49.408 58.88a19.044 19.044 0 0 0 14.848 6.912 19.284 19.284 0 0 0 14.592-31.488l-7.936-9.472a90.838 90.838 0 0 0 15.36-51.2c0-51.456-40.7-92.16-92.416-92.16s-92.416 40.7-92.416 92.16 40.708 92.16 92.42 92.16zm107.776-60.16c0 36.1 25.856 60.16 58.88 60.16S329.5 234.5 329.5 198.4v-57.6a17.92 17.92 0 1 0-35.84 0v58.88c0 16.64-10.24 25.6-23.04 25.6s-23.04-8.96-23.04-25.6V140.8a17.92 17.92 0 0 0-35.84 0zM408.1 258.56a60.771 60.771 0 0 0 37.632-12.8 18.209 18.209 0 0 0 17.408 12.8 17.81 17.81 0 0 0 17.92-17.92V140.8a17.81 17.81 0 0 0-17.92-17.92 18.209 18.209 0 0 0-17.408 12.8 62.375 62.375 0 0 0-37.632-12.8c-36.1 0-63.232 29.952-63.232 67.84S372 258.56 408.1 258.56zm5.12-33.28c-18.176 0-32.256-14.592-32.256-34.56 0-19.712 14.08-34.56 32.256-34.56 17.92 0 32 14.848 32 34.56-.004 19.968-14.084 34.56-32.004 34.56zm88.32 15.36a17.92 17.92 0 1 0 35.84 0V92.16a17.92 17.92 0 1 0-35.84 0zm56.32 0a17.92 17.92 0 0 0 35.84 0V92.16a17.92 17.92 0 0 0-35.84 0zm86.528 11.52a18.019 18.019 0 0 0 13.568 6.4c9.472 0 18.176-7.68 18.176-17.92a18.467 18.467 0 0 0-4.352-11.52l-33.792-40.192 32.768-38.912a15.9 15.9 0 0 0 3.84-10.752c0-9.472-7.424-16.384-17.152-16.384-4.864 0-8.7 1.792-12.288 5.888l-41.728 49.664a20.9 20.9 0 0 0-4.608 12.288 20.407 20.407 0 0 0 4.864 13.056z" transform="translate(927.6 61)" style="mix-blend-mode:multiply;isolation:isolate;fill:#fdfaf2"/>
                <path data-name="패스 2925" d="M103.968 258.56a92.181 92.181 0 0 0 16.9-1.536 18.572 18.572 0 0 0-3.328-36.864 19.9 19.9 0 0 0-4.1.512 56.774 56.774 0 0 1-9.472.768c-29.44 0-52.736-24.32-52.736-55.04s23.3-55.04 52.736-55.04S156.7 135.68 156.7 166.4a58.258 58.258 0 0 1-3.072 18.688l-14.08-16.9a19.044 19.044 0 0 0-14.848-6.908 19.284 19.284 0 0 0-14.592 31.488l49.408 58.88a19.044 19.044 0 0 0 14.848 6.912 19.284 19.284 0 0 0 14.592-31.488l-7.936-9.472a90.838 90.838 0 0 0 15.36-51.2c0-51.456-40.7-92.16-92.416-92.16s-92.416 40.7-92.416 92.16 40.708 92.16 92.42 92.16zm107.776-60.16c0 36.1 25.856 60.16 58.88 60.16S329.5 234.5 329.5 198.4v-57.6a17.92 17.92 0 1 0-35.84 0v58.88c0 16.64-10.24 25.6-23.04 25.6s-23.04-8.96-23.04-25.6V140.8a17.92 17.92 0 0 0-35.84 0zM408.1 258.56a60.771 60.771 0 0 0 37.632-12.8 18.209 18.209 0 0 0 17.408 12.8 17.81 17.81 0 0 0 17.92-17.92V140.8a17.81 17.81 0 0 0-17.92-17.92 18.209 18.209 0 0 0-17.408 12.8 62.375 62.375 0 0 0-37.632-12.8c-36.1 0-63.232 29.952-63.232 67.84S372 258.56 408.1 258.56zm5.12-33.28c-18.176 0-32.256-14.592-32.256-34.56 0-19.712 14.08-34.56 32.256-34.56 17.92 0 32 14.848 32 34.56-.004 19.968-14.084 34.56-32.004 34.56zm88.32 15.36a17.92 17.92 0 1 0 35.84 0V92.16a17.92 17.92 0 1 0-35.84 0zm56.32 0a17.92 17.92 0 0 0 35.84 0V92.16a17.92 17.92 0 0 0-35.84 0zm86.528 11.52a18.019 18.019 0 0 0 13.568 6.4c9.472 0 18.176-7.68 18.176-17.92a18.467 18.467 0 0 0-4.352-11.52l-33.792-40.192 32.768-38.912a15.9 15.9 0 0 0 3.84-10.752c0-9.472-7.424-16.384-17.152-16.384-4.864 0-8.7 1.792-12.288 5.888l-41.728 49.664a20.9 20.9 0 0 0-4.608 12.288 20.407 20.407 0 0 0 4.864 13.056z" transform="translate(243.024 61)" style="mix-blend-mode:multiply;isolation:isolate;fill:#fdfaf2"/>
                <path data-name="패스 2924" d="M103.968 258.56a92.181 92.181 0 0 0 16.9-1.536 18.572 18.572 0 0 0-3.328-36.864 19.9 19.9 0 0 0-4.1.512 56.774 56.774 0 0 1-9.472.768c-29.44 0-52.736-24.32-52.736-55.04s23.3-55.04 52.736-55.04S156.7 135.68 156.7 166.4a58.258 58.258 0 0 1-3.072 18.688l-14.08-16.9a19.044 19.044 0 0 0-14.848-6.908 19.284 19.284 0 0 0-14.592 31.488l49.408 58.88a19.044 19.044 0 0 0 14.848 6.912 19.284 19.284 0 0 0 14.592-31.488l-7.936-9.472a90.838 90.838 0 0 0 15.36-51.2c0-51.456-40.7-92.16-92.416-92.16s-92.416 40.7-92.416 92.16 40.708 92.16 92.42 92.16zm107.776-60.16c0 36.1 25.856 60.16 58.88 60.16S329.5 234.5 329.5 198.4v-57.6a17.92 17.92 0 1 0-35.84 0v58.88c0 16.64-10.24 25.6-23.04 25.6s-23.04-8.96-23.04-25.6V140.8a17.92 17.92 0 0 0-35.84 0zM408.1 258.56a60.771 60.771 0 0 0 37.632-12.8 18.209 18.209 0 0 0 17.408 12.8 17.81 17.81 0 0 0 17.92-17.92V140.8a17.81 17.81 0 0 0-17.92-17.92 18.209 18.209 0 0 0-17.408 12.8 62.375 62.375 0 0 0-37.632-12.8c-36.1 0-63.232 29.952-63.232 67.84S372 258.56 408.1 258.56zm5.12-33.28c-18.176 0-32.256-14.592-32.256-34.56 0-19.712 14.08-34.56 32.256-34.56 17.92 0 32 14.848 32 34.56-.004 19.968-14.084 34.56-32.004 34.56zm88.32 15.36a17.92 17.92 0 1 0 35.84 0V92.16a17.92 17.92 0 1 0-35.84 0zm56.32 0a17.92 17.92 0 0 0 35.84 0V92.16a17.92 17.92 0 0 0-35.84 0zm86.528 11.52a18.019 18.019 0 0 0 13.568 6.4c9.472 0 18.176-7.68 18.176-17.92a18.467 18.467 0 0 0-4.352-11.52l-33.792-40.192 32.768-38.912a15.9 15.9 0 0 0 3.84-10.752c0-9.472-7.424-16.384-17.152-16.384-4.864 0-8.7 1.792-12.288 5.888l-41.728 49.664a20.9 20.9 0 0 0-4.608 12.288 20.407 20.407 0 0 0 4.864 13.056z" transform="translate(-441.552 61)" style="mix-blend-mode:multiply;isolation:isolate;fill:#fdfaf2"/>
                <path data-name="패스 2932" d="M103.968 258.56a92.181 92.181 0 0 0 16.9-1.536 18.572 18.572 0 0 0-3.328-36.864 19.9 19.9 0 0 0-4.1.512 56.774 56.774 0 0 1-9.472.768c-29.44 0-52.736-24.32-52.736-55.04s23.3-55.04 52.736-55.04S156.7 135.68 156.7 166.4a58.258 58.258 0 0 1-3.072 18.688l-14.08-16.9a19.044 19.044 0 0 0-14.848-6.908 19.284 19.284 0 0 0-14.592 31.488l49.408 58.88a19.044 19.044 0 0 0 14.848 6.912 19.284 19.284 0 0 0 14.592-31.488l-7.936-9.472a90.838 90.838 0 0 0 15.36-51.2c0-51.456-40.7-92.16-92.416-92.16s-92.416 40.7-92.416 92.16 40.708 92.16 92.42 92.16zm107.776-60.16c0 36.1 25.856 60.16 58.88 60.16S329.5 234.5 329.5 198.4v-57.6a17.92 17.92 0 1 0-35.84 0v58.88c0 16.64-10.24 25.6-23.04 25.6s-23.04-8.96-23.04-25.6V140.8a17.92 17.92 0 0 0-35.84 0zM408.1 258.56a60.771 60.771 0 0 0 37.632-12.8 18.209 18.209 0 0 0 17.408 12.8 17.81 17.81 0 0 0 17.92-17.92V140.8a17.81 17.81 0 0 0-17.92-17.92 18.209 18.209 0 0 0-17.408 12.8 62.375 62.375 0 0 0-37.632-12.8c-36.1 0-63.232 29.952-63.232 67.84S372 258.56 408.1 258.56zm5.12-33.28c-18.176 0-32.256-14.592-32.256-34.56 0-19.712 14.08-34.56 32.256-34.56 17.92 0 32 14.848 32 34.56-.004 19.968-14.084 34.56-32.004 34.56zm88.32 15.36a17.92 17.92 0 1 0 35.84 0V92.16a17.92 17.92 0 1 0-35.84 0zm56.32 0a17.92 17.92 0 0 0 35.84 0V92.16a17.92 17.92 0 0 0-35.84 0zm86.528 11.52a18.019 18.019 0 0 0 13.568 6.4c9.472 0 18.176-7.68 18.176-17.92a18.467 18.467 0 0 0-4.352-11.52l-33.792-40.192 32.768-38.912a15.9 15.9 0 0 0 3.84-10.752c0-9.472-7.424-16.384-17.152-16.384-4.864 0-8.7 1.792-12.288 5.888l-41.728 49.664a20.9 20.9 0 0 0-4.608 12.288 20.407 20.407 0 0 0 4.864 13.056z" transform="translate(1670 571)" style="mix-blend-mode:multiply;isolation:isolate;fill:#fdfaf2"/>
                <path data-name="패스 2933" d="M103.968 258.56a92.181 92.181 0 0 0 16.9-1.536 18.572 18.572 0 0 0-3.328-36.864 19.9 19.9 0 0 0-4.1.512 56.774 56.774 0 0 1-9.472.768c-29.44 0-52.736-24.32-52.736-55.04s23.3-55.04 52.736-55.04S156.7 135.68 156.7 166.4a58.258 58.258 0 0 1-3.072 18.688l-14.08-16.9a19.044 19.044 0 0 0-14.848-6.908 19.284 19.284 0 0 0-14.592 31.488l49.408 58.88a19.044 19.044 0 0 0 14.848 6.912 19.284 19.284 0 0 0 14.592-31.488l-7.936-9.472a90.838 90.838 0 0 0 15.36-51.2c0-51.456-40.7-92.16-92.416-92.16s-92.416 40.7-92.416 92.16 40.708 92.16 92.42 92.16zm107.776-60.16c0 36.1 25.856 60.16 58.88 60.16S329.5 234.5 329.5 198.4v-57.6a17.92 17.92 0 1 0-35.84 0v58.88c0 16.64-10.24 25.6-23.04 25.6s-23.04-8.96-23.04-25.6V140.8a17.92 17.92 0 0 0-35.84 0zM408.1 258.56a60.771 60.771 0 0 0 37.632-12.8 18.209 18.209 0 0 0 17.408 12.8 17.81 17.81 0 0 0 17.92-17.92V140.8a17.81 17.81 0 0 0-17.92-17.92 18.209 18.209 0 0 0-17.408 12.8 62.375 62.375 0 0 0-37.632-12.8c-36.1 0-63.232 29.952-63.232 67.84S372 258.56 408.1 258.56zm5.12-33.28c-18.176 0-32.256-14.592-32.256-34.56 0-19.712 14.08-34.56 32.256-34.56 17.92 0 32 14.848 32 34.56-.004 19.968-14.084 34.56-32.004 34.56zm88.32 15.36a17.92 17.92 0 1 0 35.84 0V92.16a17.92 17.92 0 1 0-35.84 0zm56.32 0a17.92 17.92 0 0 0 35.84 0V92.16a17.92 17.92 0 0 0-35.84 0zm86.528 11.52a18.019 18.019 0 0 0 13.568 6.4c9.472 0 18.176-7.68 18.176-17.92a18.467 18.467 0 0 0-4.352-11.52l-33.792-40.192 32.768-38.912a15.9 15.9 0 0 0 3.84-10.752c0-9.472-7.424-16.384-17.152-16.384-4.864 0-8.7 1.792-12.288 5.888l-41.728 49.664a20.9 20.9 0 0 0-4.608 12.288 20.407 20.407 0 0 0 4.864 13.056z" transform="translate(970 571)" style="mix-blend-mode:multiply;isolation:isolate;fill:#fdfaf2"/>
                <path data-name="패스 2934" d="M103.968 258.56a92.181 92.181 0 0 0 16.9-1.536 18.572 18.572 0 0 0-3.328-36.864 19.9 19.9 0 0 0-4.1.512 56.774 56.774 0 0 1-9.472.768c-29.44 0-52.736-24.32-52.736-55.04s23.3-55.04 52.736-55.04S156.7 135.68 156.7 166.4a58.258 58.258 0 0 1-3.072 18.688l-14.08-16.9a19.044 19.044 0 0 0-14.848-6.908 19.284 19.284 0 0 0-14.592 31.488l49.408 58.88a19.044 19.044 0 0 0 14.848 6.912 19.284 19.284 0 0 0 14.592-31.488l-7.936-9.472a90.838 90.838 0 0 0 15.36-51.2c0-51.456-40.7-92.16-92.416-92.16s-92.416 40.7-92.416 92.16 40.708 92.16 92.42 92.16zm107.776-60.16c0 36.1 25.856 60.16 58.88 60.16S329.5 234.5 329.5 198.4v-57.6a17.92 17.92 0 1 0-35.84 0v58.88c0 16.64-10.24 25.6-23.04 25.6s-23.04-8.96-23.04-25.6V140.8a17.92 17.92 0 0 0-35.84 0zM408.1 258.56a60.771 60.771 0 0 0 37.632-12.8 18.209 18.209 0 0 0 17.408 12.8 17.81 17.81 0 0 0 17.92-17.92V140.8a17.81 17.81 0 0 0-17.92-17.92 18.209 18.209 0 0 0-17.408 12.8 62.375 62.375 0 0 0-37.632-12.8c-36.1 0-63.232 29.952-63.232 67.84S372 258.56 408.1 258.56zm5.12-33.28c-18.176 0-32.256-14.592-32.256-34.56 0-19.712 14.08-34.56 32.256-34.56 17.92 0 32 14.848 32 34.56-.004 19.968-14.084 34.56-32.004 34.56zm88.32 15.36a17.92 17.92 0 1 0 35.84 0V92.16a17.92 17.92 0 1 0-35.84 0zm56.32 0a17.92 17.92 0 0 0 35.84 0V92.16a17.92 17.92 0 0 0-35.84 0zm86.528 11.52a18.019 18.019 0 0 0 13.568 6.4c9.472 0 18.176-7.68 18.176-17.92a18.467 18.467 0 0 0-4.352-11.52l-33.792-40.192 32.768-38.912a15.9 15.9 0 0 0 3.84-10.752c0-9.472-7.424-16.384-17.152-16.384-4.864 0-8.7 1.792-12.288 5.888l-41.728 49.664a20.9 20.9 0 0 0-4.608 12.288 20.407 20.407 0 0 0 4.864 13.056z" transform="translate(270 571)" style="mix-blend-mode:multiply;isolation:isolate;fill:#fdfaf2"/>
                <path data-name="패스 2935" d="M103.968 258.56a92.181 92.181 0 0 0 16.9-1.536 18.572 18.572 0 0 0-3.328-36.864 19.9 19.9 0 0 0-4.1.512 56.774 56.774 0 0 1-9.472.768c-29.44 0-52.736-24.32-52.736-55.04s23.3-55.04 52.736-55.04S156.7 135.68 156.7 166.4a58.258 58.258 0 0 1-3.072 18.688l-14.08-16.9a19.044 19.044 0 0 0-14.848-6.908 19.284 19.284 0 0 0-14.592 31.488l49.408 58.88a19.044 19.044 0 0 0 14.848 6.912 19.284 19.284 0 0 0 14.592-31.488l-7.936-9.472a90.838 90.838 0 0 0 15.36-51.2c0-51.456-40.7-92.16-92.416-92.16s-92.416 40.7-92.416 92.16 40.708 92.16 92.42 92.16zm107.776-60.16c0 36.1 25.856 60.16 58.88 60.16S329.5 234.5 329.5 198.4v-57.6a17.92 17.92 0 1 0-35.84 0v58.88c0 16.64-10.24 25.6-23.04 25.6s-23.04-8.96-23.04-25.6V140.8a17.92 17.92 0 0 0-35.84 0zM408.1 258.56a60.771 60.771 0 0 0 37.632-12.8 18.209 18.209 0 0 0 17.408 12.8 17.81 17.81 0 0 0 17.92-17.92V140.8a17.81 17.81 0 0 0-17.92-17.92 18.209 18.209 0 0 0-17.408 12.8 62.375 62.375 0 0 0-37.632-12.8c-36.1 0-63.232 29.952-63.232 67.84S372 258.56 408.1 258.56zm5.12-33.28c-18.176 0-32.256-14.592-32.256-34.56 0-19.712 14.08-34.56 32.256-34.56 17.92 0 32 14.848 32 34.56-.004 19.968-14.084 34.56-32.004 34.56zm88.32 15.36a17.92 17.92 0 1 0 35.84 0V92.16a17.92 17.92 0 1 0-35.84 0zm56.32 0a17.92 17.92 0 0 0 35.84 0V92.16a17.92 17.92 0 0 0-35.84 0zm86.528 11.52a18.019 18.019 0 0 0 13.568 6.4c9.472 0 18.176-7.68 18.176-17.92a18.467 18.467 0 0 0-4.352-11.52l-33.792-40.192 32.768-38.912a15.9 15.9 0 0 0 3.84-10.752c0-9.472-7.424-16.384-17.152-16.384-4.864 0-8.7 1.792-12.288 5.888l-41.728 49.664a20.9 20.9 0 0 0-4.608 12.288 20.407 20.407 0 0 0 4.864 13.056z" transform="translate(-430 571)" style="mix-blend-mode:multiply;isolation:isolate;fill:#fdfaf2"/>
                <path data-name="패스 2931" d="M103.968 258.56a92.181 92.181 0 0 0 16.9-1.536 18.572 18.572 0 0 0-3.328-36.864 19.9 19.9 0 0 0-4.1.512 56.774 56.774 0 0 1-9.472.768c-29.44 0-52.736-24.32-52.736-55.04s23.3-55.04 52.736-55.04S156.7 135.68 156.7 166.4a58.258 58.258 0 0 1-3.072 18.688l-14.08-16.9a19.044 19.044 0 0 0-14.848-6.908 19.284 19.284 0 0 0-14.592 31.488l49.408 58.88a19.044 19.044 0 0 0 14.848 6.912 19.284 19.284 0 0 0 14.592-31.488l-7.936-9.472a90.838 90.838 0 0 0 15.36-51.2c0-51.456-40.7-92.16-92.416-92.16s-92.416 40.7-92.416 92.16 40.708 92.16 92.42 92.16zm107.776-60.16c0 36.1 25.856 60.16 58.88 60.16S329.5 234.5 329.5 198.4v-57.6a17.92 17.92 0 1 0-35.84 0v58.88c0 16.64-10.24 25.6-23.04 25.6s-23.04-8.96-23.04-25.6V140.8a17.92 17.92 0 0 0-35.84 0zM408.1 258.56a60.771 60.771 0 0 0 37.632-12.8 18.209 18.209 0 0 0 17.408 12.8 17.81 17.81 0 0 0 17.92-17.92V140.8a17.81 17.81 0 0 0-17.92-17.92 18.209 18.209 0 0 0-17.408 12.8 62.375 62.375 0 0 0-37.632-12.8c-36.1 0-63.232 29.952-63.232 67.84S372 258.56 408.1 258.56zm5.12-33.28c-18.176 0-32.256-14.592-32.256-34.56 0-19.712 14.08-34.56 32.256-34.56 17.92 0 32 14.848 32 34.56-.004 19.968-14.084 34.56-32.004 34.56zm88.32 15.36a17.92 17.92 0 1 0 35.84 0V92.16a17.92 17.92 0 1 0-35.84 0zm56.32 0a17.92 17.92 0 0 0 35.84 0V92.16a17.92 17.92 0 0 0-35.84 0zm86.528 11.52a18.019 18.019 0 0 0 13.568 6.4c9.472 0 18.176-7.68 18.176-17.92a18.467 18.467 0 0 0-4.352-11.52l-33.792-40.192 32.768-38.912a15.9 15.9 0 0 0 3.84-10.752c0-9.472-7.424-16.384-17.152-16.384-4.864 0-8.7 1.792-12.288 5.888l-41.728 49.664a20.9 20.9 0 0 0-4.608 12.288 20.407 20.407 0 0 0 4.864 13.056z" transform="translate(620 317)" style="mix-blend-mode:multiply;isolation:isolate;fill:#fdfaf2"/>
                <path data-name="패스 2940" d="M103.968 258.56a92.181 92.181 0 0 0 16.9-1.536 18.572 18.572 0 0 0-3.328-36.864 19.9 19.9 0 0 0-4.1.512 56.774 56.774 0 0 1-9.472.768c-29.44 0-52.736-24.32-52.736-55.04s23.3-55.04 52.736-55.04S156.7 135.68 156.7 166.4a58.258 58.258 0 0 1-3.072 18.688l-14.08-16.9a19.044 19.044 0 0 0-14.848-6.908 19.284 19.284 0 0 0-14.592 31.488l49.408 58.88a19.044 19.044 0 0 0 14.848 6.912 19.284 19.284 0 0 0 14.592-31.488l-7.936-9.472a90.838 90.838 0 0 0 15.36-51.2c0-51.456-40.7-92.16-92.416-92.16s-92.416 40.7-92.416 92.16 40.708 92.16 92.42 92.16zm107.776-60.16c0 36.1 25.856 60.16 58.88 60.16S329.5 234.5 329.5 198.4v-57.6a17.92 17.92 0 1 0-35.84 0v58.88c0 16.64-10.24 25.6-23.04 25.6s-23.04-8.96-23.04-25.6V140.8a17.92 17.92 0 0 0-35.84 0zM408.1 258.56a60.771 60.771 0 0 0 37.632-12.8 18.209 18.209 0 0 0 17.408 12.8 17.81 17.81 0 0 0 17.92-17.92V140.8a17.81 17.81 0 0 0-17.92-17.92 18.209 18.209 0 0 0-17.408 12.8 62.375 62.375 0 0 0-37.632-12.8c-36.1 0-63.232 29.952-63.232 67.84S372 258.56 408.1 258.56zm5.12-33.28c-18.176 0-32.256-14.592-32.256-34.56 0-19.712 14.08-34.56 32.256-34.56 17.92 0 32 14.848 32 34.56-.004 19.968-14.084 34.56-32.004 34.56zm88.32 15.36a17.92 17.92 0 1 0 35.84 0V92.16a17.92 17.92 0 1 0-35.84 0zm56.32 0a17.92 17.92 0 0 0 35.84 0V92.16a17.92 17.92 0 0 0-35.84 0zm86.528 11.52a18.019 18.019 0 0 0 13.568 6.4c9.472 0 18.176-7.68 18.176-17.92a18.467 18.467 0 0 0-4.352-11.52l-33.792-40.192 32.768-38.912a15.9 15.9 0 0 0 3.84-10.752c0-9.472-7.424-16.384-17.152-16.384-4.864 0-8.7 1.792-12.288 5.888l-41.728 49.664a20.9 20.9 0 0 0-4.608 12.288 20.407 20.407 0 0 0 4.864 13.056z" transform="translate(620 -178)" style="mix-blend-mode:multiply;isolation:isolate;fill:#fdfaf2"/>
            </g>
        </g>
    </g>
</svg>
