<svg xmlns="http://www.w3.org/2000/svg" width="201" height="341" viewBox="0 0 201 341">
    <defs>
        <clipPath id="bz7ttffwwa">
            <path data-name="사각형 805" transform="translate(0 .133)" style="fill:#ffba00" d="M0 0h199v200H0z"/>
        </clipPath>
    </defs>
    <g data-name="그룹 1511">
        <g data-name="그룹 1513">
            <g data-name="그룹 1510">
                <g data-name="그룹 1393">
                    <g data-name="그룹 1125" transform="translate(2 -.134)" style="clip-path:url(#bz7ttffwwa)">
                        <path data-name="패스 843" d="M239.766 258.986a8.754 8.754 0 1 0-8.754-8.754 8.754 8.754 0 0 0 8.754 8.754" transform="translate(-149.666 -155.576)" style="fill:#ffba00"/>
                        <path data-name="패스 844" d="M173.582 32.573a99.816 99.816 0 1 0-147.07 134.991A100.524 100.524 0 0 0 40.2 179.881a99.3 99.3 0 0 0 55.008 19.643c1.576.073 3.168.109 4.735.109a99.579 99.579 0 0 0 70.132-28.912 99.61 99.61 0 0 0 29.451-66.295 99.161 99.161 0 0 0-25.943-71.855m-21.223 79.59a7.879 7.879 0 0 0-5.452 7.509c0 6.205-4.228 9.095-7.91 10.918a34.952 34.952 0 0 1-9.97 3 92.014 92.014 0 0 0-9.18.479 42.921 42.921 0 0 0 7.867-6.306 42.636 42.636 0 0 0-29.884-72.512h-.452a42.619 42.619 0 0 0-38.764 24.903l-9.258-3.7a7.895 7.895 0 0 0-5.864 14.66l17.2 6.877A7.9 7.9 0 0 0 71.45 91.68a9.432 9.432 0 0 1 .821-3.275l.1-.247a26.957 26.957 0 0 1 25.01-17.122h.286a26.965 26.965 0 0 1 26.525 26.43 26.812 26.812 0 0 1-26.814 27.2 7.9 7.9 0 0 0-7.893 7.9v20.374a7.894 7.894 0 0 0 15.069 3.295c.461-.678 5.209-6.854 24.958-6.854.255 0 .513-.012.77-.037a49.636 49.636 0 0 0 15.293-4.4 33.284 33.284 0 0 0 10.226-7.394 84.147 84.147 0 0 1 4.853 13.517c.257.983.494 1.97.7 2.939a81.689 81.689 0 0 1-3.822 4.054 82.028 82.028 0 0 1-106.681 7.54 78.91 78.91 0 0 1-3.068-2.411 51.972 51.972 0 0 1 1.13-3.846 58.518 58.518 0 0 1 7.52-14.829l.627-.9c5.051-7.243 13.5-19.368 13.5-31.461a7.9 7.9 0 0 0-10.023-7.6L42.1 109.711a7.894 7.894 0 1 0 4.253 15.2l4.754-1.329a110.778 110.778 0 0 1-6.969 10.959l-.668.956a75.4 75.4 0 0 0-8.118 15.003A82 82 0 0 1 99.725 17.817c1.285 0 2.591.03 3.88.09a82 82 0 0 1 78.122 85.7v.017a82.469 82.469 0 0 1-8.944 33.646 102.8 102.8 0 0 0-11.6-22.243 7.879 7.879 0 0 0-8.825-2.864" transform="translate(-.971 -.145)" style="fill:#ffba00"/>
                    </g>
                </g>
            </g>
            <text data-name="Hello World!" transform="translate(100 335)" style="font-size:28px;font-family:Como-SemiBold,Como;font-weight:600;letter-spacing:-.02em;fill:#ffba00"><tspan x="-74.27" y="0">Hello World!</tspan></text>
            <path data-name="패스 845" d="M29.252 59.44a27.486 27.486 0 0 0 5.085-.467 5.647 5.647 0 0 0-1-11.2 5.934 5.934 0 0 0-1.233.156 16.927 16.927 0 0 1-2.851.233c-8.86 0-15.871-7.389-15.871-16.722s7.011-16.722 15.871-16.722 15.87 7.389 15.87 16.722a17.853 17.853 0 0 1-.924 5.678l-4.237-5.133a5.794 5.794 0 0 0-8.86 7.467L45.97 57.34a5.794 5.794 0 0 0 8.86-7.467L52.442 47a27.786 27.786 0 0 0 4.622-15.56 27.813 27.813 0 1 0-55.624 0 27.672 27.672 0 0 0 27.812 28zm32.435-18.278c0 10.967 7.781 18.278 17.72 18.278s17.72-7.311 17.72-18.278v-17.5a5.393 5.393 0 1 0-10.786 0v17.889c0 5.056-3.082 7.778-6.934 7.778s-6.934-2.722-6.934-7.778V23.662a5.393 5.393 0 1 0-10.786 0zm59.091 18.278a18.178 18.178 0 0 0 11.322-3.889 5.486 5.486 0 0 0 5.239 3.889 5.386 5.386 0 0 0 5.395-5.44V23.662a5.386 5.386 0 0 0-5.393-5.444 5.486 5.486 0 0 0-5.239 3.889 18.657 18.657 0 0 0-11.325-3.889c-10.863 0-19.029 9.1-19.029 20.611s8.167 20.611 19.03 20.611zm1.541-10.111c-5.47 0-9.707-4.433-9.707-10.5 0-5.989 4.237-10.5 9.707-10.5 5.393 0 9.63 4.511 9.63 10.5 0 6.071-4.238 10.5-9.631 10.5zM148.9 54a5.393 5.393 0 1 0 10.786 0V8.884a5.393 5.393 0 1 0-10.786 0zm16.949 0a5.393 5.393 0 1 0 10.786 0V8.884a5.393 5.393 0 1 0-10.786 0zm26.04 3.5a5.4 5.4 0 0 0 4.083 1.944A5.5 5.5 0 0 0 201.44 54a5.642 5.642 0 0 0-1.31-3.5l-10.169-12.216 9.861-11.822a4.86 4.86 0 0 0 1.156-3.267 4.946 4.946 0 0 0-5.162-4.978 4.6 4.6 0 0 0-3.7 1.789L179.56 35.1a6.385 6.385 0 0 0-1.387 3.733 6.235 6.235 0 0 0 1.464 3.967z" transform="translate(-1.44 228.56)" style="fill:#ffa700"/>
        </g>
    </g>
</svg>
