<svg xmlns="http://www.w3.org/2000/svg" width="current" height="current" viewBox="current">
    <defs>
        <clipPath id="z0zm3kj3na">
            <path data-name="사각형 1033" style="stroke:#707070;fill:#fff" d="M0 0h1920v1080H0z"/>
        </clipPath>
        <clipPath id="w1rpsr5brb">
            <path data-name="사각형 970" style="fill:none" d="M0 0h126.547v109.594H0z"/>
        </clipPath>
        <clipPath id="9g7tkpolac">
            <path data-name="사각형 971" style="fill:none" d="M0 0h84.597v73.258H0z"/>
        </clipPath>
        <clipPath id="b1s316acrd">
            <path data-name="사각형 975" style="fill:none" d="M0 0h208.724v180.762H0z"/>
        </clipPath>
        <clipPath id="b7of4b63ke">
            <path data-name="사각형 976" style="fill:none" d="M0 0h139.522v120.83H0z"/>
        </clipPath>
        <clipPath id="b3ufxerzmf">
            <path data-name="사각형 969" style="fill:#ffba00" d="M0 0h2558.389v967.61H0z"/>
        </clipPath>
    </defs>
    <g data-name="마스크 그룹 1485" style="clip-path:url(#z0zm3kj3na)">
        <g data-name="그룹 1372">
            <path data-name="사각형 967" transform="translate(-87.718 -90)" style="fill:#fff0c6" d="M0 0h2096.379v1082.054H0z"/>
            <path data-name="사각형 968" transform="translate(-87.718 794.684)" style="fill:#ffdd81" d="M0 0h2096.379v308.424H0z"/>
            <g data-name="그룹 1366" transform="translate(83.005 310.235)">
                <path data-name="패스 1092" d="M1900.117 318.188a54.046 54.046 0 0 0-38.232 15.783 54.209 54.209 0 0 0-91.4 27.852 54.242 54.242 0 0 0-75.185 50.007c0 .057.005.117.005.174a53.442 53.442 0 0 0-1.269 5.063 54.253 54.253 0 0 0-74.062 39.02h328.507V347.936a54.179 54.179 0 0 0-48.365-29.748" transform="translate(147.897 29.049)" style="fill:#fff"/>
                <g data-name="그룹 1355" style="opacity:.3">
                    <g data-name="그룹 1354">
                        <g data-name="그룹 1353" style="clip-path:url(#w1rpsr5brb)" transform="translate(1851.743 514.303)">
                            <path data-name="패스 1093" d="m1728.467 580.872-31.637-54.8 31.637-54.8h63.273l31.638 54.8-31.638 54.8z" transform="translate(-1696.83 -471.277)" style="fill:#fff"/>
                        </g>
                    </g>
                </g>
                <g data-name="그룹 1358" style="opacity:.3">
                    <g data-name="그룹 1357">
                        <g data-name="그룹 1356" style="clip-path:url(#9g7tkpolac)" transform="translate(1918.225 581.422)">
                            <path data-name="패스 1094" d="m1778.9 606.039-21.148-36.628 21.148-36.63h42.3l21.146 36.63-21.146 36.628z" transform="translate(-1757.75 -532.781)" style="fill:#fff"/>
                        </g>
                    </g>
                </g>
                <path data-name="패스 1095" d="M153.229 387.625a87.945 87.945 0 0 0-34.11 6.844 85.597 85.597 0 0 0-2.065-8.239c0-.092.009-.19.009-.283A88.206 88.206 0 0 0 0 302.6v155.35h239.618a88.232 88.232 0 0 0-86.389-70.327" transform="translate(-150.342 27.183)" style="fill:#fff"/>
                <path data-name="패스 1096" d="M402.068 149.948s-53.1-26.825-89.288 12.571c0 0 38.831-20.711 95.285.829 22.3-50.28 70.731-64.511 70.731-64.511-53.18-5.809-76.729 51.111-76.729 51.111" transform="translate(-161.428 145.533)" style="fill:#fff"/>
                <path data-name="패스 1097" d="M312.78 158.613s9.647-5.141 26.3-7.636l-.555-9.791a64.7 64.7 0 0 0-25.749 17.427" transform="translate(-161.428 149.438)" style="fill:#28283a"/>
                <path data-name="패스 1098" d="M467.667 98.837a63.648 63.648 0 0 0-32.98 4.889l6.651 8.072c14.583-9.511 26.329-12.961 26.329-12.961" transform="translate(-150.299 145.533)" style="fill:#28283a"/>
                <path data-name="패스 1099" d="M1240.574 149.115s-20.132-42.161-61.537-35.04c0 0 34.079 5.763 58.833 46.249 38-20.551 74.934-6.152 74.934-6.152-30.272-29.136-72.23-5.057-72.23-5.057" transform="translate(107.641 10.341)" style="fill:#fff"/>
                <path data-name="패스 1100" d="M1179.037 114.075s8.465 1.435 20.016 7.878l4.353-6.354a50.8 50.8 0 0 0-24.369-1.525" transform="translate(107.641 10.341)" style="fill:#28283a"/>
                <path data-name="패스 1101" d="M1303.523 151.82a50 50 0 0 0-22.85-12.792l.261 8.211a87.224 87.224 0 0 1 22.589 4.581" transform="translate(116.92 12.693)" style="fill:#28283a"/>
                <path data-name="패스 1102" d="M1220.428 310.59a3.419 3.419 0 0 1-3.465-4.621l17.52-60.071a6.82 6.82 0 0 1 6.161-4.621h20.216a4.828 4.828 0 0 1 4.814 4.814v59.685a4.828 4.828 0 0 1-4.814 4.814z" transform="translate(111.087 22.028)" style="fill:#faf6e9"/>
                <path data-name="패스 1103" d="m1089.337 306.177-12.7 105.924a8.438 8.438 0 0 0 8.437 8.437h223.6a8.439 8.439 0 0 0 8.437-8.437l-12.7-105.924z" transform="translate(98.293 27.953)" style="fill:#faf6e9"/>
                <rect data-name="사각형 972" width="242.598" height="25.992" rx="6.175" transform="translate(1174.931 315.291)" style="fill:#f7a766"/>
                <path data-name="패스 1104" d="m1365.4 359.809 6.411-6.942-4.141-16.137-8.347-.438c-4.354-9.337-9.922-14.25-14.776-16.814 3.49-5.753 5.589-14.253 1.951-26.286 0 0-10.835 5.953-14.184 18.081l20.581 80.174c1.718-1.061 14.128-9.508 12.505-31.639" transform="translate(121.634 26.767)" style="fill:#ff7545"/>
                <path data-name="패스 1105" d="M1334.2 310.433c-.053.2-.113.391-.163.588-9.344-9.337-22.441-8.6-22.441-8.6 3.6 13.241 10.763 19.285 17.24 22a41.458 41.458 0 0 0-4.5 23.827l-4.021 2.9 3.513 13.683 4.768.812c9.362 24.184 25.989 25.085 25.989 25.085s.073-.041.2-.118z" transform="translate(119.743 27.609)" style="fill:#ff6036"/>
                <path data-name="패스 1106" d="M1354.246 369.153a3.192 3.192 0 1 1 2.3-3.885 3.192 3.192 0 0 1-2.3 3.885" transform="translate(123.273 33.128)" style="fill:#231815"/>
                <path data-name="패스 1107" d="m1355.855 352.489-11.3 2.9s3.462-8.1 11.3-2.9" transform="translate(122.752 32.022)" style="fill:#fff"/>
                <path data-name="패스 1108" d="m1347.148 354.723-11.3 2.9s3.459-8.1 11.3-2.9" transform="translate(121.957 32.226)" style="fill:#fff"/>
                <path data-name="패스 1109" d="m1349.913 329.341-11.3 2.9s3.461-8.1 11.3-2.9" transform="translate(122.21 29.908)" style="fill:#fff"/>
                <path data-name="패스 1110" d="m1341.207 331.576-11.3 2.9s3.46-8.1 11.3-2.9" transform="translate(121.415 30.112)" style="fill:#fff"/>
                <path data-name="패스 1111" d="m1357.561 343.828-11.3 2.9s3.46-8.1 11.3-2.9" transform="translate(122.908 31.231)" style="fill:#fff"/>
                <path data-name="패스 1112" d="m1348.855 346.062-11.3 2.9s3.458-8.1 11.3-2.9" transform="translate(122.113 31.435)" style="fill:#fff"/>
                <path data-name="패스 1113" d="m1339.992 348.338-11.3 2.9s3.459-8.1 11.3-2.9" transform="translate(121.304 31.643)" style="fill:#fff"/>
                <path data-name="패스 1114" d="m1355.581 336.11-11.3 2.9s3.46-8.1 11.3-2.9" transform="translate(122.728 30.526)" style="fill:#fff"/>
                <path data-name="패스 1115" d="m1346.877 338.345-11.3 2.9s3.458-8.1 11.3-2.9" transform="translate(121.933 30.73)" style="fill:#fff"/>
                <path data-name="패스 1116" d="m1338.011 340.621-11.3 2.9s3.458-8.1 11.3-2.9" transform="translate(121.123 30.938)" style="fill:#fff"/>
                <path data-name="패스 1117" d="M1344.843 451.073h38.757a4.5 4.5 0 0 0 4.329-4.66v-79.384h-43.086z" transform="translate(122.779 33.508)" style="fill:#ffd900"/>
                <path data-name="패스 1118" d="M1305.856 367.029v79.384a4.5 4.5 0 0 0 4.326 4.66h38.22v-84.044z" transform="translate(119.219 33.508)" style="fill:#ffe54f"/>
                <path data-name="패스 1119" d="M1305.856 363.775v.648a5.19 5.19 0 0 1 .058-.648z" transform="translate(119.219 33.211)" style="fill:#e58800"/>
                <path data-name="패스 1120" d="M1384.33 364.423v-.648h-.06a4.806 4.806 0 0 1 .06.648" transform="translate(126.378 33.211)" style="fill:#e58800"/>
                <path data-name="패스 1121" d="M1344.843 363.775v3.552h43.086v-2.9a4.843 4.843 0 0 0-.061-.648z" transform="translate(122.779 33.211)" style="fill:#ff9700"/>
                <path data-name="패스 1122" d="M1348.4 363.775h-42.488a5.19 5.19 0 0 0-.058.648v2.9h42.546z" transform="translate(119.219 33.211)" style="fill:#ffaa30"/>
                <path data-name="패스 1123" d="M1383.6 352.059h-38.757v12.786h43.085v-9.834c0-1.63-1.936-2.952-4.328-2.952" transform="translate(122.779 32.141)" style="fill:#ff9a1f"/>
                <path data-name="패스 1124" d="M1310.182 352.059c-2.392 0-4.326 1.322-4.326 2.952v9.834h42.544v-12.786z" transform="translate(119.219 32.141)" style="fill:#ffc957"/>
                <path data-name="패스 1125" d="M1349.194 388.907c-25.121 0-37.115-8.173-42.752-15.028-6.246-7.6-6.317-15.191-6.317-15.511v-1.792h7.571v3.584h-3.822c.911 6.068 6.844 25.163 45.32 25.163 38.042 0 44.272-18.9 45.288-24.887h-3.841v-3.584h7.623v1.792c0 .316-.072 7.851-6.323 15.38-5.638 6.79-17.629 14.883-42.746 14.883" transform="translate(118.696 32.554)" style="fill:#444"/>
                <path data-name="사각형 973" d="M.815 0h2.614a.815.815 0 0 1 .815.815v6.141a.815.815 0 0 1-.815.815H.813A.813.813 0 0 1 0 6.958V.815A.815.815 0 0 1 .815 0z" transform="translate(1423.296 387.152)" style="fill:#444"/>
                <path data-name="사각형 974" d="M.815 0h2.612a.813.813 0 0 1 .813.813v6.143a.815.815 0 0 1-.815.815H.813A.813.813 0 0 1 0 6.958V.815A.815.815 0 0 1 .815 0z" transform="translate(1508.41 387.152)" style="fill:#444"/>
                <path data-name="패스 1126" d="M1360.3 388.054a.806.806 0 0 1-.889.686h-25.061a.806.806 0 0 1-.887-.686v-7.128a.81.81 0 0 1 .887-.686h25.061a.809.809 0 0 1 .889.686z" transform="translate(121.739 34.714)" style="fill:#ff6036"/>
                <path data-name="패스 1127" d="M1060.807 382.586a2.024 2.024 0 0 1-1.5-3.383c.494-.546 50.254-55.038 123.346-91.875 43-21.673 85.57-33.107 126.514-33.981 51.224-1.095 100.022 14.431 144.989 46.144a2.024 2.024 0 0 1-2.333 3.309c-100.159-70.636-200.611-45.465-267.244-11.908-72.448 36.485-121.779 90.487-122.269 91.028a2.02 2.02 0 0 1-1.5.666" transform="translate(96.663 23.125)" style="fill:#ff6036"/>
                <path data-name="패스 1128" d="M1075.364 365.3h-.047l.03-1.618c.365 0 34.6.111 47.982-39.514l.213-.634.665.092c.436.062 43.685 5.6 51.937-32.112l.177-.807.8.192c.4.1 40.26 9.192 61.057-25l.343-.562.621.219c.394.142 39.685 13.707 60.728-10.755l.464-.537.594.387c.323.211 32.669 20.932 55.609 3.656l.549-.413.5.474c.168.16 17.024 15.953 38.063 11.7l.506-.1.307.418c.143.2 14.539 19.489 32.046 15.395l.673-.157.261.642c.24.588 6.024 14.4 19.318 12.2l.264 1.6c-12.872 2.125-19.4-9.674-20.8-12.565-16.763 3.426-30.515-12.911-32.753-15.745-19.574 3.686-35.49-9.133-38.5-11.753a36.729 36.729 0 0 1-22 6.791c-16.212 0-31.188-8.509-34.329-10.41-20.366 22.9-56.246 12.559-61.417 10.91-19.829 31.867-55.849 26.469-61.678 25.355-8.384 35.729-47.3 33.219-52.9 32.665-13.677 39.484-47.8 40-49.286 40" transform="translate(98.172 23.213)" style="fill:#4f1911"/>
                <path data-name="패스 1129" d="M1041.71 410.719a8.437 8.437 0 0 1-11.82-1.334l-2.741-3.438a8.435 8.435 0 0 1 1.333-11.82l36.313-28.952a8.434 8.434 0 0 1 11.819 1.332l2.744 3.442a8.435 8.435 0 0 1-1.333 11.819z" transform="translate(93.608 33.172)" style="fill:#60211a"/>
                <path data-name="패스 1130" d="M1104.7 383.4a24.737 24.737 0 1 1-17.369-30.367A24.738 24.738 0 0 1 1104.7 383.4" transform="translate(96.416 32.151)" style="fill:#60211a"/>
                <path data-name="패스 1131" d="M1097.067 380.878a17.455 17.455 0 1 1-12.256-21.428 17.458 17.458 0 0 1 12.256 21.428" transform="translate(97.026 32.76)" style="fill:#ff6036"/>
                <path data-name="패스 1132" d="M1082.424 376.039a3.491 3.491 0 1 1-2.452-4.284 3.49 3.49 0 0 1 2.452 4.284" transform="translate(98.194 33.928)" style="fill:#4f1911"/>
                <path data-name="패스 1133" d="m1110.274 388.594-12.332 9.482-17.48-22.815-2.245 1.72L1095.7 399.8l2.663 3.467 14.58-11.21z" transform="translate(98.437 34.26)" style="fill:#60211a"/>
                <path data-name="패스 1134" d="M1195.047 416.4c0 3.349-3.016 6.064-6.739 6.064h-55.835c-3.724 0-6.739-2.715-6.739-6.064v-65.847c0-3.349 3.015-6.064 6.739-6.064h55.835c3.722 0 6.739 2.715 6.739 6.064z" transform="translate(102.775 31.45)" style="fill:#a05136"/>
                <path data-name="패스 1135" d="m880.495 411 43.946 90.39s20.71 46.047 57.565 46.047h412.35s30.544 0 50.84-46.047l41.21-90.39z" transform="translate(80.385 37.523)" style="fill:#a05136"/>
                <path data-name="패스 1136" d="M920.811 493.927a157.883 157.883 0 0 0 17.038 25.381h488.282a103.421 103.421 0 0 0 15.435-25.381l.523-1.145H920.257z" transform="translate(84.016 44.989)" style="fill:#8a4431"/>
                <path data-name="패스 1137" d="M1468.431 444.169H896.619l12.9 26.525h546.826z" transform="translate(81.858 40.551)" style="fill:#8a4431"/>
                <path data-name="패스 1138" d="M1486.406 423.323c0 2.224-1.245 4.026-2.777 4.026h-600.36c-1.531 0-2.774-1.8-2.774-4.026v-19.231c0-2.225 1.243-4.028 2.774-4.028h600.36c1.532 0 2.777 1.8 2.777 4.028z" transform="translate(80.385 36.524)" style="fill:#f7a766"/>
                <path data-name="패스 1139" d="M1378.377 450.752a7.759 7.759 0 1 1-7.759-7.76 7.759 7.759 0 0 1 7.759 7.76" transform="translate(124.423 40.443)" style="fill:#60211a"/>
                <path data-name="패스 1140" d="M1354.18 450.752a7.759 7.759 0 1 1-7.76-7.76 7.758 7.758 0 0 1 7.76 7.76" transform="translate(122.214 40.443)" style="fill:#60211a"/>
                <path data-name="패스 1141" d="M962.043 438.383a3.452 3.452 0 1 0 3.453 3.452 3.452 3.452 0 0 0-3.453-3.452m0 5.868a2.417 2.417 0 1 1 2.418-2.416 2.418 2.418 0 0 1-2.418 2.416" transform="translate(87.515 40.023)" style="fill:#ff6036"/>
                <path data-name="패스 1142" d="M1019.357 441.007a3.453 3.453 0 1 0 3.452 3.451 3.45 3.45 0 0 0-3.452-3.451m0 5.87a2.419 2.419 0 1 1 2.417-2.419 2.418 2.418 0 0 1-2.417 2.419" transform="translate(92.748 40.262)" style="fill:#ff6036"/>
                <path data-name="패스 1143" d="M956.767 498.368a3.454 3.454 0 1 0 3.454 3.454 3.452 3.452 0 0 0-3.454-3.454m0 5.868a2.417 2.417 0 1 1 2.418-2.414 2.413 2.413 0 0 1-2.418 2.414" transform="translate(87.033 45.499)" style="fill:#ff6036"/>
                <path data-name="패스 1144" d="M1017.755 502.312a3.453 3.453 0 1 0 3.454 3.452 3.451 3.451 0 0 0-3.454-3.452m0 5.87a2.417 2.417 0 1 1 2.418-2.418 2.416 2.416 0 0 1-2.418 2.418" transform="translate(92.601 45.859)" style="fill:#ff6036"/>
                <path data-name="패스 1145" d="m986.289 456.1-7.844-22.313a46.437 46.437 0 0 0-27.788 24.094l21.3 10.219a22.735 22.735 0 0 1 14.334-12" transform="translate(86.791 39.603)" style="fill:#f54531"/>
                <path data-name="패스 1146" d="M990.808 495.359a22.569 22.569 0 0 1-12.444-3.721L968.1 513.03a46.4 46.4 0 0 0 39.457 2.823l-7.843-22.309a22.594 22.594 0 0 1-8.9 1.816" transform="translate(88.383 44.884)" style="fill:#fff"/>
                <path data-name="패스 1147" d="m997.068 494.311 7.843 22.309a46.459 46.459 0 0 0 25.025-23.178l-21.295-10.219a22.775 22.775 0 0 1-11.573 11.087" transform="translate(91.028 44.116)" style="fill:#f54531"/>
                <path data-name="패스 1148" d="m1009.542 469.81 22.292-7.835a46.436 46.436 0 0 0-26.233-27.1l-10.266 21.392a22.747 22.747 0 0 1 14.207 13.542" transform="translate(90.87 39.702)" style="fill:#f54531"/>
                <path data-name="패스 1149" d="m1030.708 459.708-22.292 7.835a22.734 22.734 0 0 1-.743 17.826l21.294 10.219a46.417 46.417 0 0 0 1.741-35.881" transform="translate(91.996 41.969)" style="fill:#fff"/>
                <path data-name="패스 1150" d="m971 480.673-22.3 7.837a46.456 46.456 0 0 0 21.169 25.521l10.266-21.392A22.717 22.717 0 0 1 971 480.673" transform="translate(86.612 43.883)" style="fill:#f54531"/>
                <path data-name="패스 1151" d="M990.076 455.438a22.605 22.605 0 0 1 7.014 1.11l10.266-21.393a46.484 46.484 0 0 0-31.236-1.19l7.844 22.313a22.55 22.55 0 0 1 6.113-.84" transform="translate(89.116 39.424)" style="fill:#fff"/>
                <path data-name="패스 1152" d="M970.093 475.934a22.617 22.617 0 0 1 2.243-9.851l-21.3-10.219a46.5 46.5 0 0 0-2.135 34.91l22.3-7.837a22.584 22.584 0 0 1-1.109-7" transform="translate(86.409 41.618)" style="fill:#fff"/>
                <path data-name="패스 1153" d="M920.267 320.514a11.513 11.513 0 0 1 11.513 11.513v20.5h60.62s-12.311 34.224-41.027 34.224h-26.99c-8.31 0-15.632-9.729-15.632-16.088v-38.636a11.515 11.515 0 0 1 11.514-11.513" transform="translate(82.965 29.262)" style="fill:#fff"/>
                <path data-name="패스 1154" d="M911.039 329.358a30.213 30.213 0 0 0-12.865 3.736l12.865-.178z" transform="translate(81.999 30.069)" style="fill:#ffb000"/>
                <path data-name="패스 1155" d="M911.039 335.568a23.382 23.382 0 0 1-12.865-2.847l12.865-.1z" transform="translate(81.999 30.367)" style="fill:#e87400"/>
                <path data-name="패스 1156" d="M918.39 329.527a.726.726 0 0 1 .009.251c-.125.841-1.75 1.522-2.633 1.581a4 4 0 0 1-2.713-1.343c-.048-.095-.062-.055-.08-.31-.069-1.018 1.526-1.967 2.544-2.035s2.806.837 2.873 1.856" transform="translate(83.35 29.915)" style="fill:#474747"/>
                <path data-name="패스 1157" d="M984.372 349.845h8.183s-4.106 5.95-10.859 5.95z" transform="translate(89.625 31.939)" style="fill:#4b5f60"/>
                <path data-name="패스 1158" d="M942.859 349.845s-15.212 9.4-4.117 20.5 31.8 1.83 31.8 1.83 10.857-4.4 19.5-22.329z" transform="translate(85.333 31.939)" style="fill:#91bbbf"/>
                <path data-name="패스 1159" d="M936.088 400.076a2.406 2.406 0 0 1-2.406-2.406v-18.294a2.406 2.406 0 1 1 4.813 0v18.294a2.406 2.406 0 0 1-2.406 2.406" transform="translate(85.241 34.416)" style="fill:#e87400"/>
                <path data-name="패스 1160" d="m935.624 394.891-8.047-1.234s1.946 1.7-1.172 4.548c0 0 4.119.653 3.068 3.517 0 0 6.748-3.285 7.508-3.937s2.113-2.376-1.356-2.894" transform="translate(84.577 35.939)" style="fill:#e87400"/>
                <path data-name="패스 1161" d="M947.827 400.076a2.406 2.406 0 0 1-2.406-2.406v-18.294a2.406 2.406 0 1 1 4.813 0v18.294a2.406 2.406 0 0 1-2.406 2.406" transform="translate(86.313 34.416)" style="fill:#e87400"/>
                <path data-name="패스 1162" d="m946.934 395.1-8.065 1.126s2.353 1.071.183 4.694c0 0 4.132-.555 3.947 2.489 0 0 5.522-5.082 6.064-5.927s1.34-2.881-2.13-2.382" transform="translate(85.715 36.064)" style="fill:#e87400"/>
                <path data-name="패스 1163" d="M195.313 384.8a29.32 29.32 0 0 0-9.1 1.445 29.4 29.4 0 0 0-56.805 9.029h-.04a12.321 12.321 0 0 0-10.926 18.026c-.164-.007-.321-.027-.486-.027a12.332 12.332 0 1 0 6.638 22.71 20.333 20.333 0 0 0 29.174 4.587 20.294 20.294 0 0 0 26.263-1.24 29.405 29.405 0 1 0 15.282-54.53" transform="translate(-140.698 33.542)" style="fill:#fff"/>
                <g data-name="그룹 1361" style="opacity:.3">
                    <g data-name="그룹 1360">
                        <g data-name="그룹 1359" style="clip-path:url(#b1s316acrd)" transform="translate(292.753 187.069)">
                            <path data-name="패스 1164" d="M320.444 352.181 268.262 261.8l52.181-90.382h104.363l52.181 90.382-52.181 90.38z" transform="translate(-268.262 -171.419)" style="fill:#fff"/>
                        </g>
                    </g>
                </g>
                <g data-name="그룹 1364" style="opacity:.3">
                    <g data-name="그룹 1363">
                        <g data-name="그룹 1362" style="clip-path:url(#b7of4b63ke)" transform="translate(391.611 301.371)">
                            <path data-name="패스 1165" d="m393.731 396.989-34.881-60.415 34.881-60.415h69.762l34.879 60.415-34.879 60.415z" transform="translate(-358.85 -276.159)" style="fill:#fff"/>
                        </g>
                    </g>
                </g>
                <path data-name="패스 1166" d="M1488.665 205.372s36.022 22.564 37.087 1.127c1.116-22.489-37.087-1.127-37.087-1.127" transform="translate(135.909 17.913)" style="fill:#05bdf5"/>
                <path data-name="패스 1167" d="M1489.452 217.3s-.3 28.827 12.482 21.852c13.406-7.317-12.482-21.852-12.482-21.852" transform="translate(135.981 19.839)" style="fill:#fff"/>
                <path data-name="패스 1168" d="M1478.429 195.555s13.651-40.255-7.452-36.348c-22.141 4.1 7.452 36.348 7.452 36.348" transform="translate(133.543 14.511)" style="fill:#05bdf5"/>
                <path data-name="패스 1169" d="M1489.294 190.461s28.118-6.359 18.386-17.184c-10.211-11.357-18.386 17.184-18.386 17.184" transform="translate(135.966 15.576)" style="fill:#fff"/>
                <path data-name="패스 1170" d="M1479.807 633.254c-.161 0-.323 0-.484-.011-10.9-.467-15.368-16.674-15.706-17.965-.82-2-12.964-34.654 12.494-150.627 13.063-59.506-2.473-97.879-17.806-119.592-16.618-23.532-36.591-33.132-36.791-33.226l.689-1.465c.2.095 20.506 9.837 37.374 33.685 15.549 21.984 31.315 60.814 18.115 120.944C1452.1 581.587 1465 614.386 1465.134 614.7l.038.113c.042.165 4.316 16.387 14.225 16.808 10.791.448 30.019-17.3 60.475-104.481 30.375-86.954 32.424-155.93 6.088-205.011-24.519-45.695-65.765-56.672-66.179-56.778a279.793 279.793 0 0 1-46.644-19.388c-22.519-11.889-51.673-31.836-62.663-59.35-8.029-20.1-5.479-41.629 7.577-64l1.4.816c-12.791 21.918-15.307 42.974-7.472 62.583 20.714 51.854 107.357 77.523 108.229 77.777.394.1 42.289 11.221 67.161 57.538 11.859 22.083 18.055 48.676 18.419 79.039.441 36.9-7.764 79.728-24.385 127.309-24.474 70.061-45.194 105.573-61.594 105.574" transform="translate(124.701 11.195)" style="fill:#4f1911"/>
                <path data-name="패스 1171" d="m1424.928 136.7 14.117-.608 14.415 20.336-7.569 9.947c6.446 14 6.669 25.105 4.9 33.125 9.947 1.577 21.673 7.4 31.891 23.19 0 0-17.277 6.611-34.353-1.293l-71.609-101.014c2.871-.935 24.513-6.933 48.208 16.321" transform="translate(125.689 10.865)" style="fill:#ff7545"/>
                <path data-name="패스 1172" d="M1448.837 221.286c-.275-.129-.555-.251-.83-.384 1.625 19.691-11.887 33.925-11.887 33.925-11.634-16.911-11.608-30.93-8.438-40.948-8.95-1.891-20.479-6.638-31.553-17.9l-7.192 1.792-12.221-17.242 3.685-6.228c-18.552-34.07-3.5-53.918-3.5-53.918s.12-.044.331-.115z" transform="translate(125.179 10.98)" style="fill:#ff6036"/>
                <path data-name="패스 1173" d="M1396.205 131.33a4.776 4.776 0 1 0 6.659 1.133 4.779 4.779 0 0 0-6.659-1.133" transform="translate(127.284 11.909)" style="fill:#231815"/>
                <path data-name="패스 1174" d="m1416.78 145.865-14.238 10.091s12.592 3.883 14.238-10.091" transform="translate(128.046 13.317)" style="fill:#fff"/>
                <path data-name="패스 1175" d="m1405.811 153.641-14.239 10.092s12.589 3.884 14.239-10.092" transform="translate(127.045 14.027)" style="fill:#fff"/>
                <path data-name="패스 1176" d="m1437.454 175.032-14.236 10.093s12.59 3.882 14.236-10.093" transform="translate(129.934 15.98)" style="fill:#fff"/>
                <path data-name="패스 1177" d="m1426.485 182.806-14.236 10.094s12.589 3.883 14.236-10.094" transform="translate(128.932 16.689)" style="fill:#fff"/>
                <path data-name="패스 1178" d="m1428.316 152.294-14.236 10.089s12.59 3.888 14.236-10.089" transform="translate(129.1 13.904)" style="fill:#fff"/>
                <path data-name="패스 1179" d="m1417.347 160.069-14.236 10.092s12.589 3.885 14.236-10.092" transform="translate(128.098 14.614)" style="fill:#fff"/>
                <path data-name="패스 1180" d="m1406.177 167.986-14.237 10.092s12.59 3.885 14.237-10.092" transform="translate(127.078 15.336)" style="fill:#fff"/>
                <path data-name="패스 1181" d="m1435.2 162.015-14.233 10.09s12.594 3.886 14.233-10.09" transform="translate(129.729 14.791)" style="fill:#fff"/>
                <path data-name="패스 1182" d="M1424.239 169.79 1410 179.883s12.593 3.884 14.237-10.093" transform="translate(128.727 15.501)" style="fill:#fff"/>
                <path data-name="패스 1183" d="m1413.07 177.707-14.239 10.093s12.592 3.885 14.239-10.094" transform="translate(127.707 16.224)" style="fill:#fff"/>
                <path data-name="사각형 977" style="fill:none" d="M0 0h2096.379v919.657H0z"/>
            </g>
            <g data-name="그룹 1352">
                <g data-name="그룹 1351" transform="translate(-148 222.867)" style="clip-path:url(#b3ufxerzmf)">
                    <path data-name="패스 1090" d="M2558.389 478.3c-40.07 0-40.07 30.133-80.14 30.133s-40.064-30.133-80.126-30.133-40.063 30.133-80.125 30.133c-40.039 0-40.039-30.133-80.1-30.133s-40.055 30.133-80.117 30.133-40.054-30.133-80.109-30.133-40.044 30.133-80.112 30.133c-40.038 0-40.038-30.133-80.089-30.133-40.069 0-40.069 30.133-80.113 30.133s-40.057-30.133-80.1-30.133-40.047 30.133-80.086 30.133-40.05-30.133-80.094-30.133-40.05 30.133-80.105 30.133c-40.039 0-40.039-30.133-80.084-30.133s-40.058 30.133-80.109 30.133-40.061-30.133-80.1-30.133c-40.059 0-40.059 30.133-80.1 30.133-40.058 0-40.058-30.133-80.1-30.133s-40.047 30.133-80.094 30.133S996.337 478.3 956.3 478.3c-40.057 0-40.057 30.133-80.111 30.133S836.143 478.3 796.1 478.3s-40.04 30.133-80.084 30.133-40.047-30.133-80.1-30.133-40.049 30.133-80.1 30.133-40.038-30.133-80.081-30.133-40.047 30.133-80.1 30.133c-40.035 0-40.035-30.133-80.082-30.133s-40.049 30.133-80.1 30.133S195.41 478.3 155.368 478.3s-40.043 30.133-80.088 30.133c-38.339 0-40.065-27.552-75.28-29.906v477.432h2558.389z" transform="translate(0 158.7)" style="fill:#ffba00"/>
                    <path data-name="패스 1091" d="M2558.389 557.337c-40.07 0-40.07 30.133-80.14 30.133s-40.064-30.133-80.126-30.133-40.064 30.133-80.123 30.133c-40.039 0-40.039-30.133-80.1-30.133s-40.055 30.133-80.117 30.133-40.054-30.133-80.109-30.133-40.044 30.133-80.112 30.133c-40.038 0-40.038-30.133-80.089-30.133-40.069 0-40.069 30.133-80.113 30.133s-40.057-30.133-80.1-30.133-40.047 30.133-80.086 30.133-40.05-30.133-80.094-30.133-40.05 30.133-80.105 30.133c-40.039 0-40.039-30.133-80.084-30.133s-40.058 30.133-80.109 30.133-40.061-30.133-80.1-30.133c-40.059 0-40.059 30.133-80.1 30.133-40.058 0-40.058-30.133-80.1-30.133s-40.047 30.133-80.094 30.133-40.058-30.133-80.093-30.133c-40.057 0-40.057 30.133-80.111 30.133s-40.049-30.133-80.1-30.133S756.044 587.47 716 587.47s-40.047-30.133-80.1-30.133-40.049 30.133-80.1 30.133-40.042-30.133-80.085-30.133-40.047 30.133-80.1 30.133c-40.035 0-40.035-30.133-80.082-30.133s-40.049 30.133-80.1 30.133-40.045-30.133-80.086-30.133-40.022 30.133-80.067 30.133c-38.339 0-40.065-27.552-75.28-29.906V937.41h2558.389z" transform="translate(0 184.925)" style="fill:#ffa700"/>
                </g>
            </g>
            <path data-name="사각형 978" transform="translate(83.005 310.235)" style="fill:none" d="M0 0h2096.379v919.657H0z"/>
        </g>
    </g>
</svg>
