<svg width="402" height="110" viewBox="0 0 402 110" fill="none" xmlns="http://www.w3.org/2000/svg">
<path d="M0 55C0 24.2917 24.644 0 55.9527 0C87.2614 0 111.905 24.2917 111.905 55C111.905 66.6111 108.495 76.8472 102.606 85.5556L107.411 91.2083C109.425 93.6528 110.045 96.0972 110.045 98.6945C110.045 105.111 104.931 110 98.5759 110C95.166 110 91.9112 108.625 89.5863 105.875L59.6725 70.7361C57.6576 68.2917 57.0376 65.8472 57.0376 63.25C57.0376 56.8333 62.1524 51.9444 68.5071 51.9444C71.917 51.9444 75.1719 53.3194 77.4968 56.0694L86.0214 66.1528C87.1064 63.0972 87.8813 59.125 87.8813 55C87.8813 36.6667 73.7769 22.1528 55.9527 22.1528C38.1284 22.1528 24.024 36.6667 24.024 55C24.024 73.3333 38.1284 87.8472 55.9527 87.8472C57.9676 87.8472 59.8275 87.6945 61.6874 87.3889C62.4624 87.2361 63.2374 87.0833 64.1673 87.0833C70.3671 87.0833 75.4819 92.125 75.4819 98.2361C75.4819 103.583 71.452 108.167 66.1822 109.083C62.9274 109.694 59.3625 110 55.9527 110C24.644 110 0 85.7083 0 55Z" fill="white"/>
<path d="M122.665 39.7222C122.665 33.7638 127.469 29.0277 133.514 29.0277C139.559 29.0277 144.364 33.7638 144.364 39.7222V74.861C144.364 84.7916 150.563 90.1388 158.313 90.1388C166.063 90.1388 172.263 84.7916 172.263 74.861V39.7222C172.263 33.7638 177.067 29.0277 183.112 29.0277C189.157 29.0277 193.962 33.7638 193.962 39.7222V74.0971C193.962 95.6388 178.307 110 158.313 110C138.319 110 122.665 95.6388 122.665 74.0971V39.7222Z" fill="white"/>
<path d="M204.718 69.5138C204.718 46.9027 221.148 29.0277 243.002 29.0277C251.526 29.0277 259.431 31.9305 265.786 36.6666C267.181 32.236 271.365 29.0277 276.325 29.0277C282.37 29.0277 287.175 33.7638 287.175 39.7222V99.3055C287.175 105.264 282.37 110 276.325 110C271.365 110 267.181 106.792 265.786 102.361C259.431 107.25 251.526 110 243.002 110C221.148 110 204.718 92.1249 204.718 69.5138ZM265.476 69.5138C265.476 57.7499 256.951 48.8888 246.102 48.8888C235.252 48.8888 226.572 57.7499 226.572 69.5138C226.572 81.2777 235.097 90.1388 246.102 90.1388C257.106 90.1388 265.476 81.4305 265.476 69.5138Z" fill="white"/>
<path d="M297.935 10.6944C297.935 4.73611 302.739 0 308.784 0C314.829 0 319.634 4.73611 319.634 10.6944V99.3056C319.634 105.264 314.829 110 308.784 110C302.739 110 297.935 105.264 297.935 99.3056V10.6944Z" fill="white"/>
<path d="M330.393 10.6944C330.393 4.73611 335.198 0 341.243 0C347.287 0 352.092 4.73611 352.092 10.6944V99.3056C352.092 105.264 347.287 110 341.243 110C335.198 110 330.393 105.264 330.393 99.3056V10.6944ZM358.137 77.3056C356.432 75.3195 355.192 72.5695 355.192 69.5139C355.192 67.2222 356.277 64.1667 357.982 62.1806L383.246 32.5417C385.416 30.0972 387.741 29.0278 390.686 29.0278C396.575 29.0278 401.07 33.1528 401.07 38.8056C401.07 41.0972 400.45 43.2361 398.745 45.2222L378.906 68.4445L399.365 92.4306C401.07 94.4167 402 97.0139 402 99.3056C402 105.417 396.73 110 390.996 110C388.051 110 384.796 108.625 382.781 106.181L358.137 77.3056Z" fill="white"/>
</svg>
