<svg xmlns="http://www.w3.org/2000/svg" width="430.936" height="119.52" viewBox="0 0 430.936 119.52">
    <path data-name="패스 3076" d="M66.948 134.66a59.774 59.774 0 0 0 10.956-1 12.043 12.043 0 0 0-2.158-23.9 12.9 12.9 0 0 0-2.656.332 36.814 36.814 0 0 1-6.142.5c-19.09 0-34.2-15.77-34.2-35.69s15.106-35.69 34.2-35.69 34.2 15.77 34.2 35.69a37.777 37.777 0 0 1-1.992 12.118l-9.13-10.956a12.349 12.349 0 0 0-9.628-4.482A12.5 12.5 0 0 0 70.932 92l32.038 38.18a12.349 12.349 0 0 0 9.628 4.482 12.5 12.5 0 0 0 9.462-20.418l-5.146-6.142a58.9 58.9 0 0 0 9.96-33.2c0-33.366-26.394-59.76-59.926-59.76S7.022 41.534 7.022 74.9s26.394 59.76 59.926 59.76zm69.886-39.01c0 23.406 16.766 39.01 38.18 39.01s38.18-15.6 38.18-39.01V58.3a11.62 11.62 0 1 0-23.24 0v38.18c0 10.79-6.64 16.6-14.94 16.6s-14.94-5.81-14.94-16.6V58.3a11.62 11.62 0 1 0-23.24 0zm127.322 39.01a39.406 39.406 0 0 0 24.4-8.3 11.807 11.807 0 0 0 11.288 8.3 11.548 11.548 0 0 0 11.62-11.62V58.3a11.548 11.548 0 0 0-11.62-11.62 11.807 11.807 0 0 0-11.288 8.3 40.446 40.446 0 0 0-24.4-8.3c-23.406 0-41 19.422-41 43.99s17.594 43.99 41 43.99zm3.32-21.58c-11.786 0-20.916-9.462-20.916-22.41 0-12.782 9.13-22.41 20.916-22.41 11.62 0 20.75 9.628 20.75 22.41 0 12.948-9.126 22.41-20.75 22.41zm57.27 9.96a11.62 11.62 0 0 0 23.24 0V26.76a11.62 11.62 0 0 0-23.24 0zm36.52 0a11.62 11.62 0 0 0 23.24 0V26.76a11.62 11.62 0 0 0-23.24 0zm56.108 7.47a11.663 11.663 0 0 0 20.584-7.47 11.975 11.975 0 0 0-2.822-7.47l-21.912-26.062 21.248-25.232a10.311 10.311 0 0 0 2.49-6.972c0-6.142-4.814-10.624-11.122-10.624a9.956 9.956 0 0 0-7.968 3.818L390.814 82.7a13.549 13.549 0 0 0-2.988 7.968 13.233 13.233 0 0 0 3.154 8.466z" transform="translate(-7.022 -15.14)" style="fill:#ffba00"/>
</svg>
