<svg xmlns="http://www.w3.org/2000/svg" width="664.632" height="180.4" viewBox="0 0 664.632 180.4">
    <path data-name="패스 2639" d="M93.864 183.84a94.138 94.138 0 0 0 16.9-1.5 18.368 18.368 0 0 0 15.361-17.789 18.6 18.6 0 0 0-18.69-18.291 20.31 20.31 0 0 0-4.1.5 57.986 57.986 0 0 1-9.473.752c-29.442 0-52.74-23.8-52.74-53.869s23.3-53.869 52.74-53.869 52.74 23.8 52.74 53.869a55.919 55.919 0 0 1-3.072 18.291l-14.079-16.54a19.218 19.218 0 0 0-14.851-6.765c-10.5 0-18.946 8.018-18.946 18.541a18.123 18.123 0 0 0 4.352 12.277l49.412 57.628a19.218 19.218 0 0 0 14.849 6.765c10.5 0 18.946-8.018 18.946-18.541a18.123 18.123 0 0 0-4.352-12.277l-7.937-9.271a87.562 87.562 0 0 0 15.364-50.111c0-50.362-40.707-90.2-92.424-90.2S1.44 43.278 1.44 93.64s40.707 90.2 92.424 90.2zm107.785-58.881c0 35.328 25.858 58.881 58.885 58.881s58.885-23.552 58.885-58.881V68.584a17.926 17.926 0 0 0-35.843 0v57.628c0 16.286-10.241 25.056-23.042 25.056s-23.042-8.769-23.042-25.056V68.584a17.926 17.926 0 0 0-35.843 0zm196.368 58.881a61.632 61.632 0 0 0 37.635-12.528 18.169 18.169 0 0 0 17.409 12.528 17.624 17.624 0 0 0 17.922-17.54V68.584a17.624 17.624 0 0 0-17.922-17.539 18.169 18.169 0 0 0-17.409 12.528 63.263 63.263 0 0 0-37.635-12.528c-36.1 0-63.237 29.315-63.237 66.4s27.138 66.395 63.237 66.395zm5.12-32.572c-18.178 0-32.259-14.282-32.259-33.825 0-19.293 14.081-33.825 32.259-33.825 17.921 0 32 14.532 32 33.825.003 19.543-14.078 33.825-31.999 33.825zm88.328 15.032a17.926 17.926 0 0 0 35.843 0V20.979a17.926 17.926 0 0 0-35.843 0zm56.325 0a17.926 17.926 0 0 0 35.843 0V20.979a17.926 17.926 0 0 0-35.843 0zm86.535 11.275a18.18 18.18 0 0 0 13.569 6.264c9.473 0 18.178-7.517 18.178-17.539a17.848 17.848 0 0 0-4.353-11.275l-33.795-39.337L660.7 77.6a15.361 15.361 0 0 0 3.84-10.523c0-9.271-7.425-16.036-17.153-16.036-4.865 0-8.7 1.754-12.289 5.763l-41.731 48.608a20.191 20.191 0 0 0-4.608 12.027 19.728 19.728 0 0 0 4.864 12.778z" transform="translate(-1.44 -3.44)" style="fill:#ffa700"/>
</svg>
