<svg xmlns="http://www.w3.org/2000/svg" width="280.001" height="76" viewBox="0 0 280.001 76">
  <defs>
    <style>
      .cls-1 {
        fill: #ffa700;
      }
    </style>
  </defs>
  <path id="패스_2639" data-name="패스 2639" class="cls-1" d="M40.377,79.44a39.659,39.659,0,0,0,7.119-.633,7.738,7.738,0,0,0,6.472-7.494,7.835,7.835,0,0,0-7.874-7.706,8.556,8.556,0,0,0-1.726.211,24.429,24.429,0,0,1-3.991.317c-12.4,0-22.219-10.028-22.219-22.695s9.815-22.695,22.219-22.695S62.6,28.773,62.6,41.44A23.558,23.558,0,0,1,61.3,49.146l-5.932-6.967a8.1,8.1,0,0,0-6.256-2.85,7.813,7.813,0,0,0-7.982,7.811,7.635,7.635,0,0,0,1.834,5.172L63.782,76.59a8.1,8.1,0,0,0,6.256,2.85,7.813,7.813,0,0,0,7.982-7.811,7.635,7.635,0,0,0-1.834-5.172l-3.344-3.906A36.889,36.889,0,0,0,79.314,41.44c0-21.217-17.15-38-38.937-38S1.44,20.223,1.44,41.44,18.59,79.44,40.377,79.44ZM85.786,54.635c0,14.883,10.894,24.806,24.808,24.806S135.4,69.518,135.4,54.635V30.885a7.552,7.552,0,0,0-15.1,0V55.162c0,6.861-4.314,10.556-9.707,10.556s-9.707-3.694-9.707-10.556V30.885a7.552,7.552,0,0,0-15.1,0ZM168.513,79.44a25.965,25.965,0,0,0,15.855-5.278A7.654,7.654,0,0,0,191.7,79.44a7.425,7.425,0,0,0,7.55-7.389V30.885A7.425,7.425,0,0,0,191.7,23.5a7.654,7.654,0,0,0-7.334,5.278A26.652,26.652,0,0,0,168.513,23.5c-15.208,0-26.641,12.35-26.641,27.972S153.305,79.44,168.513,79.44Zm2.157-13.722c-7.658,0-13.59-6.017-13.59-14.25,0-8.128,5.932-14.25,13.59-14.25,7.55,0,13.482,6.122,13.482,14.25C184.153,59.7,178.221,65.718,170.67,65.718Zm37.211,6.333a7.552,7.552,0,0,0,15.1,0V10.829a7.552,7.552,0,0,0-15.1,0Zm23.729,0a7.552,7.552,0,0,0,15.1,0V10.829a7.552,7.552,0,0,0-15.1,0Zm36.456,4.75a7.614,7.614,0,0,0,13.375-4.75,7.519,7.519,0,0,0-1.834-4.75L265.37,50.729l13.806-16.045a6.471,6.471,0,0,0,1.618-4.433c0-3.906-3.128-6.756-7.227-6.756a6.524,6.524,0,0,0-5.177,2.428L250.81,46.4a8.507,8.507,0,0,0-1.941,5.067,8.311,8.311,0,0,0,2.049,5.383Z" transform="translate(-1.44 -3.44)"/>
</svg>
