<svg xmlns="http://www.w3.org/2000/svg" width="155.28" height="91.12" viewBox="0 0 155.28 91.12">
    <path data-name="패스 2833" d="M41.36 30V8.68H35.4V30zm-10.72-1.04V9.24h-5.92v5.16H14.8V9.24H8.88v19.72zM41.36 44.8V31.6H11.28v4.88h24.08v8.32zM24.72 24.08H14.8v-4.92h9.92zM64.24 41.6v-4.96H53.28V15h10v-5H47.64v31.6zm8.4 2.44V8.68H67V22.6h-7.08v5.04H67v16.4zm8.56.56V8.68h-5.72V44.6zm38.2 0V8.68h-6V44.6zm-10.72-25.48c0-5.8-3.2-9.92-10.68-9.92-7.52 0-10.72 4.12-10.72 9.92v13.32c0 5.84 3.2 9.96 10.72 9.96 7.48 0 10.68-4.12 10.68-9.96zm-5.92 13.32c0 2.92-1.44 4.96-4.76 4.96-3.4 0-4.76-2.04-4.76-4.96V19.16c0-2.96 1.36-5 4.76-5 3.32 0 4.76 2.04 4.76 5zM149.68 42v-5H132.4v-8.92h11.96V23.2H132.4v-8.56h13.92v-5h-19.84V42zm8.92 2.6V8.68h-6v13.68h-6.24v5.24h6.24v17zM40.44 79.76V63.72h-5.92v3.64H15.84v-3.64H9.92v16.04zm3.2 6.96v-4.84H6.76v4.84h15.96v5.32h6.2v-5.32zm-2.28 12.4v-4.88H16.04V88.8H10v10.32zm-6.84-24.04H15.84v-3.12h18.68zm37.16 4.56c-5.52-1.92-9.52-5.64-9.52-10.32v-5.08h-6.2v5.08c0 4.28-3.64 9-10.32 11.44l3.56 4.2c4.68-1.84 8.2-4.84 9.96-8a19.209 19.209 0 0 0 9.48 7.2zm8.88 20.16V86.28H50.48v4.92h24.08v8.6zm0-15V63.68H74.6v5.92h-6.84v4.92h6.84V84.8zm38.84 14.8V63.68h-6V99.6zm-30.2-2.08c12.84-5.96 19.56-16.8 19.44-32.52H87.6v5h14.84c-.32 8.76-4.76 17.92-16.88 23.2zm67.84 2.08V82.4h5v-5.12h-5v-13.6h-6V99.6zm-7.76-6.64c-5.56-3.68-9.88-10.12-9.88-16.56V64.64h-6.2V76.4c0 7.4-4 13.44-9.92 17.4l4.16 4.08a27.246 27.246 0 0 0 9.12-11.12 29.9 29.9 0 0 0 9.04 10.48z" transform="translate(-6.76 -8.68)" style="fill:#ffba00"/>
</svg>
