<svg xmlns="http://www.w3.org/2000/svg" width="158" height="206" viewBox="0 0 158 206">
    <defs>
        <clipPath id="bpfl2id9ya">
            <path data-name="사각형 1742" transform="translate(446.625 560)" style="stroke:#707070;fill:#fff" d="M0 0h158v206H0z"/>
        </clipPath>
    </defs>
    <g data-name="마스크 그룹 1668" transform="translate(-446.625 -560)" style="clip-path:url(#bpfl2id9ya)">
        <g data-name="그룹 5285">
            <path data-name="패스 2713" d="M69.249 167.707a1.231 1.231 0 0 1-1.356-1.083 7.25 7.25 0 0 0-1.438-3.585l-1.786-2.33a7.2 7.2 0 0 0-10.093-1.349l-11.783 9.023a7.124 7.124 0 0 0-2.768 4.764 6.838 6.838 0 0 0-.006 1.792 7.1 7.1 0 0 0 1.424 3.53l1.786 2.338c.061.081.13.163.191.238a7.2 7.2 0 0 0 9.9 1.1l4.825-3.687a1.227 1.227 0 0 1 1.492 1.949l-4.822 3.693a9.592 9.592 0 0 1-5.847 1.99 9.131 9.131 0 0 1-1.296-.09 9.578 9.578 0 0 1-5.977-3.2 5.785 5.785 0 0 1-.416-.5l-1.274-1.67H40l-.5-.668a9.754 9.754 0 0 1-1.029-1.677 9.151 9.151 0 0 1-.852-2.753 9.474 9.474 0 0 1-.02-2.706 9.571 9.571 0 0 1 3.707-6.393l11.791-9.023a9.679 9.679 0 0 1 11.054-.47h.006a9.5 9.5 0 0 1 2.133 1.867c.116.129.226.266.334.409L68 161.021l.4.524a9.08 9.08 0 0 1 1.077 1.793 9.414 9.414 0 0 1 .852 3.012 1.226 1.226 0 0 1-1.083 1.356" transform="translate(417.884 486.54)" style="fill:#e4e4e4"/>
            <path data-name="패스 2714" d="M78.561 166.678a4.6 4.6 0 0 0-.866-.2 4.763 4.763 0 0 0-3.551.94l-10.444 7.99a4.789 4.789 0 0 0-.892 6.719l.866 1.131a4.783 4.783 0 0 0 3.809 1.881 4.581 4.581 0 0 0 .961-.1 4.677 4.677 0 0 0 1.949-.886l1.949-1.485a40.389 40.389 0 0 1 2.822-5.247l-5.3 4.048-.968.736a2.342 2.342 0 0 1-3.278-.436l-.866-1.131a2.331 2.331 0 0 1 .436-3.279l10.447-7.994a2.356 2.356 0 0 1 1.418-.477 2.154 2.154 0 0 1 .293.02 2.311 2.311 0 0 1 1.568.893l.627.818c.429-.756.866-1.54 1.288-2.345a4.635 4.635 0 0 0-2.269-1.595" transform="translate(412.688 484.189)" style="fill:#e4e4e4"/>
            <path data-name="패스 2715" d="M109.183 250.381a1.262 1.262 0 0 1-.162-.009 1.374 1.374 0 0 1-1.205-1.525l2.134-18.259a1.374 1.374 0 1 1 2.73.319l-2.133 18.259a1.375 1.375 0 0 1-1.363 1.215" transform="translate(402.858 470.735)" style="fill:#e4e4e4"/>
            <path data-name="패스 2716" d="M94.382 259.5H74.665a1.375 1.375 0 0 1-1.244-1.959c5.247-11.174 14.849-11.476 18.53-11.133l2.227-15.848a1.374 1.374 0 0 1 2.722.382l-2.419 17.208a1.375 1.375 0 0 1-1.68 1.146 14.915 14.915 0 0 0-15.852 7.455h17.433a1.374 1.374 0 1 1 0 2.749" transform="translate(410.235 470.735)" style="fill:#e4e4e4"/>
            <path data-name="패스 2717" d="M117.405 165.987a1.374 1.374 0 1 1 0-2.749 21.094 21.094 0 0 0 21.095-21.394 1.375 1.375 0 0 1 1.356-1.393h.02a1.374 1.374 0 0 1 1.374 1.355 23.842 23.842 0 0 1-23.839 24.181" transform="translate(401.1 489.742)" style="fill:#e4e4e4"/>
            <path data-name="패스 2718" d="M85.775 136.155a1.388 1.388 0 0 1-.4-.059l-12.13-3.686a1.374 1.374 0 1 1 .8-2.63l10.633 3.23a23.7 23.7 0 0 1 1.14-3.905 23.987 23.987 0 0 1 6.152-8.981 1.375 1.375 0 1 1 1.856 2.029 21.212 21.212 0 0 0-5.445 7.947 20.94 20.94 0 0 0-1.241 4.861 1.374 1.374 0 0 1-1.363 1.2" transform="translate(410.453 494.163)" style="fill:#e4e4e4"/>
            <path data-name="패스 2719" d="M113.048 138.12a1.368 1.368 0 0 1-1.075-.517l-.318-.4a3.807 3.807 0 0 0-3.135-1.462 3.859 3.859 0 0 0-3.061 1.613 1.374 1.374 0 1 1-2.229-1.608 6.638 6.638 0 0 1 10.574-.257l.317.4a1.374 1.374 0 0 1-1.073 2.231" transform="translate(403.891 491.336)" style="fill:#e4e4e4"/>
            <path data-name="패스 2720" d="M145.219 214.394a1.374 1.374 0 0 1-.975.4h-21.126l-1.9 16.942a10.959 10.959 0 0 1 4.812 9.106 1.311 1.311 0 0 1-.383.974 1.369 1.369 0 0 1-.961.429l-32.038.708h-.028a1.372 1.372 0 0 1-1.152-.62 1.392 1.392 0 0 1-.1-1.336c5.255-11.19 14.911-11.974 18.523-11.845l2.017-14.359H87.973a1.543 1.543 0 0 1-.259-.02c-.484-.1-11.824-2.371-17.242-11.633-3.346-5.725-3.653-12.778-.914-20.977l.143-.409c.416-1.206.886-2.4 1.425-3.571a44.849 44.849 0 0 1 4.123-7.265 72.617 72.617 0 0 0 3.36-5.3c.4-.715.811-1.459 1.213-2.228a40.422 40.422 0 0 0 2.317-5.329 20.785 20.785 0 0 0 .981-3.946l-.334.061-6.461 1.186-3.408.62a1.39 1.39 0 0 1-1.6-1.1 1.376 1.376 0 0 1 1.1-1.6l2.808-.511 9.135-1.671a1.378 1.378 0 0 1 .9.143 1.024 1.024 0 0 1 .231.15 1.365 1.365 0 0 1 .491 1.056c0 3.953-1.779 8.519-3.891 12.54-.422.8-.859 1.588-1.288 2.345a78.543 78.543 0 0 1-3.3 5.152c-.382.545-.743 1.1-1.083 1.649a40.345 40.345 0 0 0-2.822 5.247 35.4 35.4 0 0 0-1.438 3.653c-2.474 7.4-2.249 13.692.675 18.694 4.5 7.722 14.1 10.059 15.279 10.318h25.38a1.366 1.366 0 0 1 1.356 1.568l-2.412 17.208a1.37 1.37 0 0 1-.559.92 1.354 1.354 0 0 1-1.043.239 16 16 0 0 0-15.907 8.171l28.228-.627a8.062 8.062 0 0 0-3.986-5.821 1.376 1.376 0 0 1-.783-1.39l2.133-19.048a1.378 1.378 0 0 1 1.369-1.22h21.782c8.873-9.132 11.545-20.67 7.933-34.3a62.809 62.809 0 0 0-6.521-15.348c-2.338 8-11.763 11.109-17.072 11.627a1.373 1.373 0 0 1-.267-2.733c.614-.061 15.123-1.643 15.123-12.758a1.376 1.376 0 0 1 2.487-.8 63.644 63.644 0 0 1 8.888 19.226c3.911 14.679.79 27.621-9.023 37.435" transform="translate(411.428 487.47)" style="fill:#e4e4e4"/>
            <path data-name="패스 2721" d="M139.154 134.137a1.409 1.409 0 0 1-.536-.106l-4.35-1.8a1.435 1.435 0 0 1-.268-.148 91.934 91.934 0 0 0-36.39-15.263l-.83-.153a1.449 1.449 0 0 1-.281-.083L92 114.72a1.4 1.4 0 0 1-.759-1.83 26.632 26.632 0 0 1 49.21 20.383 1.4 1.4 0 0 1-1.293.864m-3.673-4.437 2.878 1.192A23.833 23.833 0 0 0 94.4 112.683l3.035 1.257.684.126a94.7 94.7 0 0 1 37.362 15.634" transform="translate(406.422 499.149)" style="fill:#e4e4e4"/>
            <path data-name="패스 2722" d="M92.284 112.778H79.753l10.347 4.141z" transform="translate(408.854 495.656)" style="fill:#e4e4e4"/>
            <path data-name="패스 2723" d="M89.719 117.939a1.4 1.4 0 0 1-.52-.1L78.852 113.7a1.4 1.4 0 0 1 .521-2.7H91.9a1.4 1.4 0 0 1 1.238 2.053l-2.183 4.141a1.4 1.4 0 0 1-1.239.748m-3.08-4.141 2.43.973.513-.973z" transform="translate(409.234 496.037)" style="fill:#e4e4e4"/>
            <path data-name="패스 2724" d="M149.308 100.342a1.285 1.285 0 0 1-.109.477l-1.288 2.944-2.555 5.827a1.4 1.4 0 0 1-1.282.838 1.376 1.376 0 0 1-.565-.116 1.4 1.4 0 0 1-.715-1.847l2.481-5.663.8-1.826-2.283-1L118.279 88.8 115 96.28a1.4 1.4 0 1 1-2.57-1.124l3.844-8.764a1.4 1.4 0 0 1 1.847-.723l26.4 11.572 2.671 1.172 1.289.565a1.352 1.352 0 0 1 .742.771 1.268 1.268 0 0 1 .089.593" transform="translate(401.894 501.476)" style="fill:#e4e4e4"/>
            <path data-name="패스 2725" d="M197.859 183.727a1.364 1.364 0 0 1 1.363 1.316l3.321 96.616a1.364 1.364 0 0 1-1.363 1.41h-11.24a1.364 1.364 0 0 1-1.362-1.295l-1.238-24.729a1.363 1.363 0 0 0-1.361-1.295H140.35a1.362 1.362 0 0 0-1.361 1.295l-1.239 24.729a1.362 1.362 0 0 1-1.361 1.295h-11.24a1.363 1.363 0 0 1-1.363-1.41l3.321-96.616a1.363 1.363 0 0 1 1.363-1.316z" transform="translate(399.442 480.492)" style="fill:#fff"/>
            <path data-name="패스 2726" d="M200.807 284.07h-11.24a2.736 2.736 0 0 1-2.735-2.6l-1.238-24.729-45.618.011-1.227 24.718a2.737 2.737 0 0 1-2.735 2.6h-11.24a2.738 2.738 0 0 1-2.736-2.831l3.322-96.618a2.726 2.726 0 0 1 2.735-2.643h69.389a2.726 2.726 0 0 1 2.736 2.643l3.321 96.617a2.737 2.737 0 0 1-2.736 2.831M128.1 184.728l-3.31 96.605 11.229-.012 1.227-24.718a2.734 2.734 0 0 1 2.734-2.6h45.63a2.737 2.737 0 0 1 2.735 2.6l1.238 24.73 11.228-.011-3.332-96.594zm69.389 0z" transform="translate(399.816 480.865)" style="fill:#e4e4e4"/>
            <path data-name="패스 2728" d="M180.624 198.447h-20.6a2.74 2.74 0 0 1-2.738-2.737v-2.12a2.741 2.741 0 0 1 2.738-2.738h20.6a2.741 2.741 0 0 1 2.738 2.738v2.121a2.74 2.74 0 0 1-2.738 2.737m0-2.749zm-.011-2.109-20.585.011.011 2.11 20.574-.012z" transform="translate(392.281 478.969)" style="fill:#e4e4e4"/>
            <path data-name="패스 2729" d="M65.125 207.478a1.207 1.207 0 0 1-.423-.075c-2.314-.849-7.959-3.472-10.405-9.472a15.3 15.3 0 0 1-1.1-4.939 1.227 1.227 0 1 1 2.45-.138 12.889 12.889 0 0 0 .922 4.146c2.077 5.094 6.972 7.359 8.979 8.1a1.227 1.227 0 0 1-.423 2.379" transform="translate(414.53 478.789)" style="fill:#e4e4e4"/>
            <path data-name="패스 2730" d="m41.162 186.107-1.786-2.338a7.1 7.1 0 0 1-1.425-3.53c-.082-.006-.171-.006-.252-.006a4.216 4.216 0 0 0-2.154.6c-.075.048-.143.1-.218.143l-5.718 4.008a4.15 4.15 0 0 0 4.757 6.8l5.261-3.687.457-.321a4.049 4.049 0 0 0 1.267-1.431c-.061-.075-.129-.157-.19-.238m-3.231-.178-5.138 3.6a1.4 1.4 0 0 1-.8.252 1.377 1.377 0 0 1-1.145-.6 1.4 1.4 0 0 1 .34-1.949l5.214-3.647.5-.354a1.382 1.382 0 0 1 .8-.252 1.4 1.4 0 0 1 .8 2.549l-.565.4z" transform="translate(419.95 481.239)" style="fill:#e4e4e4"/>
            <path data-name="패스 2731" d="M85.629 151.245a1.381 1.381 0 0 0-.9-.143l-9.129 1.676-3.715 2.6-.906.634h-.007l-.041.034a4.1 4.1 0 0 0-1.492 1.909 7.16 7.16 0 0 1 2.058 1.826l1.785 2.331a7.137 7.137 0 0 1 .839 1.4 4.085 4.085 0 0 0 1.567-.668l.62-.436 6.2-4.341 1.915-1.343a4.151 4.151 0 0 0 1.711-2.678 4.1 4.1 0 0 0-.5-2.8m-10.8 8.846-.715.5A1.4 1.4 0 0 1 72.5 158.3l.607-.422 3.585-2.508 4.545-3.189a1.4 1.4 0 0 1 .8-.252 1.387 1.387 0 0 1 1.145.593 1.41 1.41 0 0 1-.034 1.663 1.572 1.572 0 0 1-.307.293z" transform="translate(411.059 487.47)" style="fill:#e4e4e4"/>
            <path data-name="패스 2732" d="M193.125 70.3a4.145 4.145 0 0 0-5.772-1.015l-33.265 23.291a4.1 4.1 0 0 0-1.022 1.029 4.026 4.026 0 0 0-.688 1.65 3.864 3.864 0 0 0-.041 1.083l2.283 1-.8 1.826a4.12 4.12 0 0 0 2.638.961h.006a4.129 4.129 0 0 0 2.378-.75l33.268-23.292a4.15 4.15 0 0 0 1.015-5.779m-2.6 3.53-32.667 22.872-.587.416a1.4 1.4 0 1 1-1.608-2.29l.075-.055 33.19-23.239a1.4 1.4 0 1 1 1.6 2.3" transform="translate(393.344 505.112)" style="fill:#e4e4e4"/>
            <path data-name="패스 2844" d="M0 0h21.524v34.234H0z" transform="rotate(-35 1194.243 -584.106)" style="fill:#fff"/>
            <path data-name="패스 2738" d="M198.371 86.862a1.8 1.8 0 0 0-.061-.266 1.414 1.414 0 0 0-.094-.266.959.959 0 0 0-.083-.191 2.293 2.293 0 0 0-.307-.491l-19.458-27.792c-.041-.061-.082-.123-.123-.178a1.391 1.391 0 0 0-.156-.19.347.347 0 0 0-.068-.075 1.238 1.238 0 0 0-.171-.164.411.411 0 0 0-.108-.088.617.617 0 0 0-.164-.123.2.2 0 0 0-.082-.055 2.749 2.749 0 0 0-1.513-.45 2.8 2.8 0 0 0-1.6.5l-1.111.777 2.713 1.52.006-.007v.007l1.609 2.29 16.418 23.458h.006l1.6 2.29.5 3.066 1.1-.77a2.791 2.791 0 0 0 1.152-1.806 2.75 2.75 0 0 0-.007-1m-21.983 10.567-16.425-23.451-1.609-2.3-.5-3.066-1.1.77a2.806 2.806 0 0 0-1.146 2.815 1.808 1.808 0 0 0 .068.279 1.252 1.252 0 0 0 .083.232.522.522 0 0 0 .046.116c.042.1.089.191.137.28.006.006.013.013.013.02.034.055.068.109.11.164l19.545 27.908a2.14 2.14 0 0 0 .136.191 1.228 1.228 0 0 0 .109.143c.054.061.108.123.164.177a.545.545 0 0 0 .061.055 1.764 1.764 0 0 0 .245.2 1.837 1.837 0 0 0 .266.177c.013.007.02.013.034.02l.109.061a2.8 2.8 0 0 0 1.261.3 2.744 2.744 0 0 0 1.6-.511l1.1-.777-2.706-1.513z" transform="translate(392.651 507.678)" style="fill:#e4e4e4"/>
            <path data-name="패스 2739" d="M177.992 56.711a6.027 6.027 0 0 0-.123-.178 1.391 1.391 0 0 0-.156-.19.366.366 0 0 0-.068-.075 1.2 1.2 0 0 0-.171-.164.411.411 0 0 0-.109-.088.617.617 0 0 0-.164-.123.2.2 0 0 0-.082-.055.918.918 0 0 0-.142-.1l-7.525-4.212a2.815 2.815 0 0 0-1.37-.355 2.76 2.76 0 0 0-1.6.5l-11.49 8.042a2.788 2.788 0 0 0-1.159 2.746l1.384 8.512c.006.02.006.048.013.068a1.812 1.812 0 0 0 .068.279 1.25 1.25 0 0 0 .083.232.522.522 0 0 0 .046.116c.042.1.089.191.137.28.006.006.013.013.013.02a2.753 2.753 0 0 0 1.315 1.139 2.852 2.852 0 0 0 1.084.218 2.808 2.808 0 0 0 1.608-.5l17.63-12.349h.007a2.814 2.814 0 0 0 1.186-2.433 2.849 2.849 0 0 0-.415-1.336m-20.016 13.827-.5-3.067-.886-5.445 11.49-8.049 4.813 2.7 2.712 1.52z" transform="translate(393.028 508.823)" style="fill:#e4e4e4"/>
            <path data-name="패스 2740" d="m205.105 103.056-1.384-8.512a.214.214 0 0 0-.013-.061 1.936 1.936 0 0 0-.062-.266 1.349 1.349 0 0 0-.1-.266.957.957 0 0 0-.082-.191 2.293 2.293 0 0 0-.307-.491 2.836 2.836 0 0 0-2.2-1.076 2.794 2.794 0 0 0-1.6.511h-.006l-17.631 12.342a2.8 2.8 0 0 0-1.193 2.433 2.754 2.754 0 0 0 .416 1.336 1.943 1.943 0 0 0 .137.19 1.037 1.037 0 0 0 .109.143c.055.061.109.123.164.178a.422.422 0 0 0 .061.054 1.86 1.86 0 0 0 .245.2 1.775 1.775 0 0 0 .266.177c.014.007.02.014.035.021l.109.061 7.415 4.15a2.8 2.8 0 0 0 2.978-.143l11.49-8.049a2.8 2.8 0 0 0 1.152-2.746m-14.251 8.5-4.818-2.7-2.706-1.514 17.63-12.349.5 3.067.886 5.445z" transform="translate(387.315 500.056)" style="fill:#e4e4e4"/>
            <path data-name="패스 2741" d="M144.046 232.743h15.222v1.657h-6.432v3.04h-2.027v-3.04h-6.763zm13.84-5.989h-4.828c.185 1.575 2.22 3.068 5.436 3.445l-.774 1.622c-2.985-.359-5.188-1.677-6.082-3.474-.893 1.787-3.077 3.114-6.062 3.474l-.756-1.622c3.215-.377 5.224-1.879 5.417-3.445h-4.791v-1.64h12.439zm-12 9.158h2.046v3.114h9.656v1.658h-11.7z" transform="translate(395.112 471.646)" style="fill:#e4e4e4"/>
            <path data-name="패스 2742" d="M165.456 225.516h2.044v4.165h4.035v-4.165h2.028V236.9h-8.109zm6.081 5.768H167.5v3.944h4.036zm6.892 9.545h-2.064v-16.677h2.064z" transform="translate(390.536 471.851)" style="fill:#e4e4e4"/>
            <path data-name="패스 2743" d="M199.779 233.659h-6.6v1.4c2.976.193 4.745 1.226 4.755 2.948-.009 1.917-2.183 2.985-5.768 2.985-3.64 0-5.8-1.069-5.8-2.985 0-1.723 1.769-2.764 4.791-2.957v-1.392h-6.561V232h15.185zm-9.048-6.929h-4.755v-1.64h12.439v1.64h-4.8c.332 1.373 2.312 2.607 5.446 2.893l-.719 1.622c-3.032-.314-5.271-1.521-6.174-3.206-.9 1.686-3.114 2.893-6.137 3.206l-.7-1.622c3.059-.285 5.058-1.529 5.4-2.893m1.437 12.7c2.386.009 3.7-.5 3.722-1.419-.018-.921-1.336-1.41-3.722-1.418-2.423.009-3.732.5-3.722 1.418-.009.921 1.3 1.429 3.722 1.419" transform="translate(386.445 471.651)" style="fill:#e4e4e4"/>
            <path data-name="패스 2744" d="M95.027 158.54a35.672 35.672 0 0 1-9.339-1.258 1.242 1.242 0 1 1 .651-2.4c11.681 3.17 23.648-.226 29.779-8.454a24.688 24.688 0 0 0 4.473-15.628 1.242 1.242 0 0 1 1.186-1.295 1.229 1.229 0 0 1 1.295 1.187 27.171 27.171 0 0 1-4.963 17.219c-5.072 6.809-13.716 10.626-23.082 10.626" transform="translate(407.781 492.081)" style="fill:#e4e4e4"/>
        </g>
    </g>
</svg>
