<svg xmlns="http://www.w3.org/2000/svg" width="209.858" height="185.123" viewBox="0 0 209.858 185.123">
    <path data-name="패스 3209" d="M190.711 70.21 96.9 14.1 3 70.21z" transform="translate(-.5 -1.93)" style="stroke:#ffb000;stroke-linecap:round;stroke-linejoin:round;stroke-width:5px;fill:#fff"/>
    <path data-name="패스 3210" d="M16.275 77.5h161.161a13.257 13.257 0 0 1 13.275 13.275v87.793a13.257 13.257 0 0 1-13.275 13.275H16.275A13.257 13.257 0 0 1 3 178.568V90.775A13.257 13.257 0 0 1 16.275 77.5z" transform="translate(-.5 -9.221)" style="fill:#efefef;stroke:#ffb000;stroke-linecap:round;stroke-linejoin:round;stroke-width:5px"/>
    <g data-name="그룹 5564">
        <path data-name="패스 3211" d="m48.292 46.641 17.966-1.5c-.974 9.647-10 21.417-14.868 27.17a65.49 65.49 0 0 0-9.735 15.222c-16.461 36.905 20.8 47.879 20.8 47.879l82.926 8.054c37.348-30.71 7.877-80.89 7.877-80.89-1.77 18.408-26.108 18.408-26.108 18.408-26.462-2.567-31.683 7.965-31.683 7.965l1.859-19.47A33.275 33.275 0 1 0 70.86 21.33a29.7 29.7 0 0 0-2.66 7.434L50.859 21.6" transform="translate(-4.462 -.664)" style="fill:#ffefc6"/>
        <path data-name="패스 3212" d="m48.292 46.653 17.966-1.5c-.974 9.647-10 21.417-14.868 27.17a65.49 65.49 0 0 0-9.735 15.217c-16.461 36.905 20.8 47.879 20.8 47.879l40.268 4.16-13.1 23.63s-16.638-10-32.834 5.576l47.7 13.01c3.275-9.027-3.363-11.063-3.363-11.063l15.842-29.913 28.232 2.744c37.348-30.71 7.877-80.89 7.877-80.89C151.308 81.08 126.97 81.08 126.97 81.08c-26.462-2.567-31.683 7.965-31.683 7.965l1.859-19.47A33.275 33.275 0 1 0 70.683 21.43a29.7 29.7 0 0 0-2.655 7.434L50.682 21.7" transform="translate(-4.462 -.676)" style="fill:none;stroke:#ffb000;stroke-linecap:round;stroke-linejoin:round;stroke-width:5px"/>
    </g>
    <path data-name="패스 3213" d="M177.436 191.844H16.275A13.257 13.257 0 0 1 3 178.568V77.5z" transform="translate(-.5 -9.221)" style="stroke:#ffb000;stroke-linecap:round;stroke-linejoin:round;stroke-width:5px;fill:#fff"/>
    <path data-name="패스 3214" d="M179.161 191.844H18L192.436 77.5v101.068a13.257 13.257 0 0 1-13.275 13.275z" transform="translate(-2.225 -9.221)" style="stroke:#ffb000;stroke-linecap:round;stroke-linejoin:round;stroke-width:5px;fill:#fff"/>
    <g data-name="그룹 5565" transform="translate(170.564 50.314)">
        <circle data-name="타원 67" cx="19.647" cy="19.647" r="19.647" style="fill:#ff6d0c"/>
        <path data-name="패스 3215" d="M217.423 86.8h-3.54V73.175h-.089l-3.894 2.478v-3.1l4.16-2.655h3.275l.089 16.9z" transform="translate(-194.855 -58.66)" style="fill:#fff"/>
    </g>
    <path data-name="패스 3216" d="m104.847 32.156-.354-.443a5.86 5.86 0 0 0-9.293.177h0" transform="translate(-11.102 -3.703)" style="fill:none;stroke:#ffb000;stroke-linecap:round;stroke-linejoin:round;stroke-width:5px"/>
</svg>
